G75*
%MOIN*%
%OFA0B0*%
%FSLAX25Y25*%
%IPPOS*%
%LPD*%
%AMOC8*
5,1,8,0,0,1.08239X$1,22.5*
%
%ADD10C,0.08200*%
%ADD11C,0.06000*%
%ADD12C,0.09400*%
%ADD13R,0.09400X0.09400*%
%ADD14C,0.09400*%
%ADD15C,0.00500*%
%ADD16C,0.03778*%
D10*
X0135609Y0148087D03*
X0145609Y0148087D03*
X0155609Y0148087D03*
X0165609Y0148087D03*
X0175609Y0148087D03*
X0175609Y0158087D03*
X0165609Y0158087D03*
X0155609Y0158087D03*
X0145609Y0158087D03*
X0135609Y0158087D03*
X0226998Y0158387D03*
X0236998Y0158387D03*
X0246998Y0158387D03*
X0256998Y0158387D03*
X0266998Y0158387D03*
X0266998Y0148387D03*
X0256998Y0148387D03*
X0246998Y0148387D03*
X0236998Y0148387D03*
X0226998Y0148387D03*
X0311250Y0116250D03*
X0311250Y0101250D03*
X0341250Y0101250D03*
X0351250Y0101250D03*
X0351250Y0116250D03*
X0341250Y0116250D03*
X0381250Y0116250D03*
X0381250Y0101250D03*
X0381250Y0086250D03*
X0351250Y0086250D03*
X0341250Y0086250D03*
X0311250Y0086250D03*
X0319887Y0148387D03*
X0329887Y0148387D03*
X0339887Y0148387D03*
X0349887Y0148387D03*
X0359887Y0148387D03*
X0359887Y0158387D03*
X0349887Y0158387D03*
X0339887Y0158387D03*
X0329887Y0158387D03*
X0319887Y0158387D03*
D11*
X0297350Y0115650D02*
X0292150Y0115650D01*
X0292150Y0105650D02*
X0297350Y0105650D01*
X0297350Y0095650D02*
X0292150Y0095650D01*
X0292150Y0085650D02*
X0297350Y0085650D01*
X0297350Y0075650D02*
X0292150Y0075650D01*
X0292150Y0065650D02*
X0297350Y0065650D01*
X0297350Y0055650D02*
X0292150Y0055650D01*
X0292150Y0045650D02*
X0297350Y0045650D01*
X0297350Y0035650D02*
X0292150Y0035650D01*
X0292150Y0025650D02*
X0297350Y0025650D01*
X0322150Y0034250D02*
X0322150Y0039450D01*
X0332150Y0039450D02*
X0332150Y0034250D01*
X0342150Y0034250D02*
X0342150Y0039450D01*
X0352150Y0039450D02*
X0352150Y0034250D01*
X0362150Y0034250D02*
X0362150Y0039450D01*
X0372150Y0039450D02*
X0372150Y0034250D01*
X0372150Y0064250D02*
X0372150Y0069450D01*
X0362150Y0069450D02*
X0362150Y0064250D01*
X0352150Y0064250D02*
X0352150Y0069450D01*
X0342150Y0069450D02*
X0342150Y0064250D01*
X0332150Y0064250D02*
X0332150Y0069450D01*
X0322150Y0069450D02*
X0322150Y0064250D01*
X0267350Y0065650D02*
X0262150Y0065650D01*
X0262150Y0055650D02*
X0267350Y0055650D01*
X0267350Y0045650D02*
X0262150Y0045650D01*
X0262150Y0035650D02*
X0267350Y0035650D01*
X0267350Y0025650D02*
X0262150Y0025650D01*
X0262150Y0075650D02*
X0267350Y0075650D01*
X0267350Y0085650D02*
X0262150Y0085650D01*
X0262150Y0095650D02*
X0267350Y0095650D01*
X0267350Y0105650D02*
X0262150Y0105650D01*
X0262150Y0115650D02*
X0267350Y0115650D01*
D12*
X0266250Y0006250D03*
X0256250Y0006250D03*
X0246250Y0006250D03*
X0236250Y0006250D03*
X0226250Y0006250D03*
X0216250Y0006250D03*
X0206250Y0006250D03*
X0196250Y0006250D03*
X0186250Y0006250D03*
X0176250Y0006250D03*
X0166250Y0006250D03*
X0156250Y0006250D03*
X0146250Y0006250D03*
X0136250Y0006250D03*
X0126250Y0006250D03*
X0116250Y0006250D03*
X0106250Y0006250D03*
X0096250Y0006250D03*
X0086250Y0006250D03*
X0076250Y0006250D03*
X0066250Y0006250D03*
X0056250Y0006250D03*
X0046250Y0006250D03*
X0036250Y0006250D03*
X0026250Y0006250D03*
X0016250Y0006250D03*
X0276250Y0006250D03*
X0286250Y0006250D03*
X0296250Y0006250D03*
X0306250Y0006250D03*
X0316250Y0006250D03*
X0326250Y0006250D03*
X0336250Y0006250D03*
X0346250Y0006250D03*
X0356250Y0006250D03*
X0366250Y0006250D03*
X0376250Y0006250D03*
X0386250Y0006250D03*
D13*
X0006250Y0006250D03*
D14*
X0042750Y0037850D02*
X0042750Y0046450D01*
X0052750Y0046450D02*
X0052750Y0037850D01*
X0062750Y0037850D02*
X0062750Y0046450D01*
X0072750Y0046450D02*
X0072750Y0037850D01*
X0082750Y0037850D02*
X0082750Y0046450D01*
X0092750Y0046450D02*
X0092750Y0037850D01*
X0102750Y0037850D02*
X0102750Y0046450D01*
X0112750Y0046450D02*
X0112750Y0037850D01*
X0122750Y0037850D02*
X0122750Y0046450D01*
X0132750Y0046450D02*
X0132750Y0037850D01*
X0142750Y0037850D02*
X0142750Y0046450D01*
X0152750Y0046450D02*
X0152750Y0037850D01*
X0162750Y0037850D02*
X0162750Y0046450D01*
X0172750Y0046450D02*
X0172750Y0037850D01*
X0182750Y0037850D02*
X0182750Y0046450D01*
X0192750Y0046450D02*
X0192750Y0037850D01*
X0202750Y0037850D02*
X0202750Y0046450D01*
X0212750Y0046450D02*
X0212750Y0037850D01*
X0222750Y0037850D02*
X0222750Y0046450D01*
X0232750Y0046450D02*
X0232750Y0037850D01*
X0232750Y0097850D02*
X0232750Y0106450D01*
X0222750Y0106450D02*
X0222750Y0097850D01*
X0212750Y0097850D02*
X0212750Y0106450D01*
X0202750Y0106450D02*
X0202750Y0097850D01*
X0192750Y0097850D02*
X0192750Y0106450D01*
X0182750Y0106450D02*
X0182750Y0097850D01*
X0172750Y0097850D02*
X0172750Y0106450D01*
X0162750Y0106450D02*
X0162750Y0097850D01*
X0152750Y0097850D02*
X0152750Y0106450D01*
X0142750Y0106450D02*
X0142750Y0097850D01*
X0132750Y0097850D02*
X0132750Y0106450D01*
X0122750Y0106450D02*
X0122750Y0097850D01*
X0112750Y0097850D02*
X0112750Y0106450D01*
X0102750Y0106450D02*
X0102750Y0097850D01*
X0092750Y0097850D02*
X0092750Y0106450D01*
X0082750Y0106450D02*
X0082750Y0097850D01*
X0072750Y0097850D02*
X0072750Y0106450D01*
X0062750Y0106450D02*
X0062750Y0097850D01*
X0052750Y0097850D02*
X0052750Y0106450D01*
X0042750Y0106450D02*
X0042750Y0097850D01*
D15*
X0022425Y0081050D02*
X0021735Y0081268D01*
X0021015Y0081346D01*
X0020355Y0081298D01*
X0019714Y0081136D01*
X0019110Y0080866D01*
X0018563Y0080494D01*
X0018088Y0080033D01*
X0017701Y0079497D01*
X0017413Y0078901D01*
X0017232Y0078265D01*
X0017165Y0077606D01*
X0017230Y0076948D01*
X0017409Y0076311D01*
X0017696Y0075715D01*
X0018082Y0075177D01*
X0018555Y0074715D01*
X0019102Y0074342D01*
X0019704Y0074070D01*
X0020345Y0073906D01*
X0021005Y0073857D01*
X0021728Y0073938D01*
X0022421Y0074158D01*
X0023058Y0074509D01*
X0023614Y0074978D01*
X0024068Y0075547D01*
X0024402Y0076193D01*
X0024604Y0076891D01*
X0024665Y0077616D01*
X0024602Y0078337D01*
X0024400Y0079031D01*
X0024066Y0079673D01*
X0023613Y0080237D01*
X0023059Y0080702D01*
X0022425Y0081050D01*
X0022495Y0081012D02*
X0019436Y0081012D01*
X0018591Y0080513D02*
X0023284Y0080513D01*
X0023792Y0080015D02*
X0018075Y0080015D01*
X0017715Y0079516D02*
X0024148Y0079516D01*
X0024404Y0079018D02*
X0017469Y0079018D01*
X0017304Y0078519D02*
X0024549Y0078519D01*
X0024630Y0078021D02*
X0017207Y0078021D01*
X0017173Y0077522D02*
X0024657Y0077522D01*
X0024615Y0077024D02*
X0017223Y0077024D01*
X0017349Y0076525D02*
X0024498Y0076525D01*
X0024316Y0076027D02*
X0017546Y0076027D01*
X0017830Y0075528D02*
X0024053Y0075528D01*
X0023655Y0075030D02*
X0018233Y0075030D01*
X0018825Y0074531D02*
X0023084Y0074531D01*
X0022027Y0074033D02*
X0019851Y0074033D01*
X0020355Y0070278D02*
X0021015Y0070326D01*
X0021735Y0070248D01*
X0022425Y0070030D01*
X0023059Y0069682D01*
X0023613Y0069217D01*
X0024066Y0068653D01*
X0024400Y0068011D01*
X0024602Y0067317D01*
X0024665Y0066596D01*
X0024604Y0065871D01*
X0024402Y0065173D01*
X0024068Y0064527D01*
X0023614Y0063958D01*
X0023058Y0063489D01*
X0022421Y0063138D01*
X0021728Y0062918D01*
X0021005Y0062837D01*
X0020345Y0062886D01*
X0019704Y0063050D01*
X0019102Y0063322D01*
X0018555Y0063695D01*
X0018082Y0064157D01*
X0017696Y0064695D01*
X0017409Y0065291D01*
X0017230Y0065928D01*
X0017165Y0066586D01*
X0017232Y0067244D01*
X0017413Y0067881D01*
X0017701Y0068476D01*
X0018088Y0069013D01*
X0018563Y0069474D01*
X0019110Y0069845D01*
X0019714Y0070116D01*
X0020355Y0070278D01*
X0019554Y0070045D02*
X0022379Y0070045D01*
X0023221Y0069546D02*
X0018669Y0069546D01*
X0018124Y0069048D02*
X0023749Y0069048D01*
X0024120Y0068549D02*
X0017753Y0068549D01*
X0017495Y0068051D02*
X0024380Y0068051D01*
X0024534Y0067552D02*
X0017319Y0067552D01*
X0017213Y0067053D02*
X0024625Y0067053D01*
X0024662Y0066555D02*
X0017168Y0066555D01*
X0017218Y0066056D02*
X0024619Y0066056D01*
X0024513Y0065558D02*
X0017334Y0065558D01*
X0017521Y0065059D02*
X0024343Y0065059D01*
X0024085Y0064561D02*
X0017792Y0064561D01*
X0018179Y0064062D02*
X0023697Y0064062D01*
X0023146Y0063564D02*
X0018748Y0063564D01*
X0019670Y0063065D02*
X0022193Y0063065D01*
X0271579Y0126441D02*
X0271498Y0127164D01*
X0271548Y0127824D01*
X0271711Y0128465D01*
X0271984Y0129068D01*
X0272357Y0129614D01*
X0272819Y0130088D01*
X0273356Y0130473D01*
X0273952Y0130760D01*
X0274589Y0130939D01*
X0275248Y0131004D01*
X0275906Y0130937D01*
X0276542Y0130757D01*
X0277138Y0130468D01*
X0277674Y0130081D01*
X0278135Y0129606D01*
X0278507Y0129059D01*
X0278778Y0128455D01*
X0278940Y0127814D01*
X0278988Y0127154D01*
X0278909Y0126435D01*
X0278692Y0125745D01*
X0278344Y0125110D01*
X0277879Y0124556D01*
X0277315Y0124103D01*
X0276673Y0123769D01*
X0275978Y0123567D01*
X0275257Y0123504D01*
X0274533Y0123566D01*
X0273834Y0123767D01*
X0273188Y0124102D01*
X0272620Y0124555D01*
X0272151Y0125111D01*
X0271799Y0125748D01*
X0271579Y0126441D01*
X0271600Y0126376D02*
X0278891Y0126376D01*
X0278957Y0126875D02*
X0271530Y0126875D01*
X0271514Y0127373D02*
X0278972Y0127373D01*
X0278925Y0127872D02*
X0271560Y0127872D01*
X0271687Y0128370D02*
X0278799Y0128370D01*
X0278592Y0128869D02*
X0271894Y0128869D01*
X0272188Y0129367D02*
X0278298Y0129367D01*
X0277883Y0129866D02*
X0272602Y0129866D01*
X0273204Y0130364D02*
X0277282Y0130364D01*
X0276167Y0130863D02*
X0274319Y0130863D01*
X0282731Y0128465D02*
X0282568Y0127824D01*
X0282518Y0127164D01*
X0282599Y0126441D01*
X0282819Y0125748D01*
X0283171Y0125111D01*
X0283640Y0124555D01*
X0284208Y0124102D01*
X0284854Y0123767D01*
X0285553Y0123566D01*
X0286278Y0123504D01*
X0286998Y0123567D01*
X0287693Y0123769D01*
X0288335Y0124103D01*
X0288899Y0124556D01*
X0289364Y0125110D01*
X0289712Y0125745D01*
X0289929Y0126435D01*
X0290008Y0127154D01*
X0289960Y0127814D01*
X0289798Y0128455D01*
X0289527Y0129059D01*
X0289155Y0129606D01*
X0288694Y0130081D01*
X0288158Y0130468D01*
X0287562Y0130757D01*
X0286926Y0130937D01*
X0286268Y0131004D01*
X0285609Y0130939D01*
X0284972Y0130760D01*
X0284376Y0130473D01*
X0283839Y0130088D01*
X0283377Y0129614D01*
X0283004Y0129068D01*
X0282731Y0128465D01*
X0282707Y0128370D02*
X0289819Y0128370D01*
X0289945Y0127872D02*
X0282580Y0127872D01*
X0282534Y0127373D02*
X0289992Y0127373D01*
X0289977Y0126875D02*
X0282551Y0126875D01*
X0282620Y0126376D02*
X0289911Y0126376D01*
X0289754Y0125878D02*
X0282778Y0125878D01*
X0283023Y0125379D02*
X0289511Y0125379D01*
X0289171Y0124881D02*
X0283365Y0124881D01*
X0283857Y0124382D02*
X0288682Y0124382D01*
X0287913Y0123884D02*
X0284629Y0123884D01*
X0278734Y0125878D02*
X0271758Y0125878D01*
X0272003Y0125379D02*
X0278491Y0125379D01*
X0278151Y0124881D02*
X0272345Y0124881D01*
X0272837Y0124382D02*
X0277662Y0124382D01*
X0276893Y0123884D02*
X0273609Y0123884D01*
X0282914Y0128869D02*
X0289612Y0128869D01*
X0289318Y0129367D02*
X0283208Y0129367D01*
X0283623Y0129866D02*
X0288903Y0129866D01*
X0288302Y0130364D02*
X0284225Y0130364D01*
X0285339Y0130863D02*
X0287187Y0130863D01*
D16*
X0264050Y0142250D03*
X0259250Y0130250D03*
X0241850Y0130850D03*
X0238250Y0125450D03*
X0223850Y0135650D03*
X0229850Y0138050D03*
X0194450Y0141050D03*
X0172850Y0138650D03*
X0166250Y0138650D03*
X0170450Y0132050D03*
X0168650Y0122450D03*
X0141650Y0139850D03*
X0140450Y0144650D03*
X0136850Y0166850D03*
X0144650Y0169250D03*
X0105050Y0166850D03*
X0095450Y0166850D03*
X0077450Y0166850D03*
X0061250Y0139850D03*
X0051050Y0136850D03*
X0065450Y0128450D03*
X0043850Y0115250D03*
X0036050Y0080450D03*
X0044450Y0031250D03*
X0108650Y0028850D03*
X0123650Y0014450D03*
X0137450Y0028850D03*
X0178850Y0032450D03*
X0186650Y0024650D03*
X0178850Y0012650D03*
X0226850Y0032450D03*
X0240050Y0028250D03*
X0244850Y0030650D03*
X0249050Y0025850D03*
X0236450Y0021050D03*
X0241250Y0012650D03*
X0258650Y0019250D03*
X0270650Y0011450D03*
X0309050Y0033650D03*
X0314450Y0024050D03*
X0372050Y0044450D03*
X0374450Y0055850D03*
X0378650Y0056450D03*
X0354650Y0079850D03*
X0359450Y0088250D03*
X0357050Y0091250D03*
X0310850Y0079250D03*
X0301250Y0068450D03*
X0286250Y0059450D03*
X0262250Y0070850D03*
X0275450Y0078650D03*
X0283250Y0086450D03*
X0285650Y0090050D03*
X0306650Y0097250D03*
X0246650Y0089450D03*
X0220850Y0070850D03*
X0217250Y0070850D03*
X0220250Y0061850D03*
X0225050Y0058850D03*
X0230450Y0057050D03*
X0226850Y0051650D03*
X0237650Y0056450D03*
X0238850Y0051650D03*
X0244250Y0054050D03*
X0250850Y0058250D03*
X0252050Y0054650D03*
X0256250Y0052250D03*
X0239450Y0047450D03*
X0256250Y0042050D03*
X0255050Y0036050D03*
X0234050Y0064250D03*
X0233450Y0068450D03*
X0199250Y0073850D03*
X0195650Y0073850D03*
X0189650Y0076250D03*
X0184850Y0077450D03*
X0185450Y0085250D03*
X0143450Y0082850D03*
X0183650Y0153050D03*
X0216650Y0170450D03*
X0215450Y0177050D03*
X0208250Y0177050D03*
X0249650Y0165650D03*
X0259850Y0168050D03*
X0273650Y0158450D03*
X0288650Y0170450D03*
X0297050Y0180650D03*
X0303050Y0183050D03*
X0312050Y0183050D03*
X0309050Y0189050D03*
X0285050Y0189050D03*
X0333050Y0165650D03*
X0304850Y0155450D03*
X0304250Y0148850D03*
X0315050Y0141650D03*
X0373850Y0156050D03*
X0376250Y0148850D03*
X0339650Y0186650D03*
M02*
