%
M48
M72
T01C0.01378
T02C0.03200
T03C0.03543
T04C0.03937
T05C0.04000
%
T01
X44450Y31250
X108650Y28850
X123650Y14450
X137450Y28850
X178850Y32450
X186650Y24650
X178850Y12650
X226850Y32450
X240050Y28250
X244850Y30650
X249050Y25850
X236450Y21050
X241250Y12650
X258650Y19250
X270650Y11450
X309050Y33650
X314450Y24050
X372050Y44450
X374450Y55850
X378650Y56450
X354650Y79850
X359450Y88250
X357050Y91250
X310850Y79250
X301250Y68450
X286250Y59450
X262250Y70850
X275450Y78650
X283250Y86450
X285650Y90050
X306650Y97250
X259250Y130250
X241850Y130850
X238250Y125450
X223850Y135650
X229850Y138050
X264050Y142250
X273650Y158450
X259850Y168050
X249650Y165650
X216650Y170450
X215450Y177050
X208250Y177050
X183650Y153050
X194450Y141050
X172850Y138650
X166250Y138650
X170450Y132050
X168650Y122450
X141650Y139850
X140450Y144650
X136850Y166850
X144650Y169250
X105050Y166850
X95450Y166850
X77450Y166850
X61250Y139850
X51050Y136850
X65450Y128450
X43850Y115250
X36050Y80450
X143450Y82850
X184850Y77450
X189650Y76250
X195650Y73850
X199250Y73850
X217250Y70850
X220850Y70850
X233450Y68450
X234050Y64250
X225050Y58850
X230450Y57050
X226850Y51650
X237650Y56450
X238850Y51650
X244250Y54050
X250850Y58250
X252050Y54650
X256250Y52250
X239450Y47450
X256250Y42050
X255050Y36050
X220250Y61850
X185450Y85250
X246650Y89450
X315050Y141650
X304250Y148850
X304850Y155450
X333050Y165650
X312050Y183050
X303050Y183050
X297050Y180650
X285050Y189050
X309050Y189050
X339650Y186650
X288650Y170450
X373850Y156050
X376250Y148850
T02
X294750Y115650
X294750Y105650
X294750Y95650
X294750Y85650
X294750Y75650
X294750Y65650
X294750Y55650
X294750Y45650
X294750Y35650
X294750Y25650
X322150Y36850
X332150Y36850
X342150Y36850
X352150Y36850
X362150Y36850
X372150Y36850
X372150Y66850
X362150Y66850
X352150Y66850
X342150Y66850
X332150Y66850
X322150Y66850
X264750Y65650
X264750Y55650
X264750Y45650
X264750Y35650
X264750Y25650
X264750Y75650
X264750Y85650
X264750Y95650
X264750Y105650
X264750Y115650
T03
X311250Y116250
X311250Y101250
X341250Y101250
X351250Y101250
X351250Y116250
X341250Y116250
X381250Y116250
X381250Y101250
X381250Y86250
X351250Y86250
X341250Y86250
X311250Y86250
T04
X6250Y6250
X16250Y6250
X26250Y6250
X36250Y6250
X46250Y6250
X56250Y6250
X66250Y6250
X76250Y6250
X86250Y6250
X96250Y6250
X106250Y6250
X116250Y6250
X126250Y6250
X136250Y6250
X146250Y6250
X156250Y6250
X166250Y6250
X176250Y6250
X186250Y6250
X196250Y6250
X206250Y6250
X216250Y6250
X226250Y6250
X236250Y6250
X246250Y6250
X256250Y6250
X266250Y6250
X276250Y6250
X286250Y6250
X296250Y6250
X306250Y6250
X316250Y6250
X326250Y6250
X336250Y6250
X346250Y6250
X356250Y6250
X366250Y6250
X376250Y6250
X386250Y6250
X232750Y42150
X222750Y42150
X212750Y42150
X202750Y42150
X192750Y42150
X182750Y42150
X172750Y42150
X162750Y42150
X152750Y42150
X142750Y42150
X132750Y42150
X122750Y42150
X112750Y42150
X102750Y42150
X92750Y42150
X82750Y42150
X72750Y42150
X62750Y42150
X52750Y42150
X42750Y42150
X42750Y102150
X52750Y102150
X62750Y102150
X72750Y102150
X82750Y102150
X92750Y102150
X102750Y102150
X112750Y102150
X122750Y102150
X132750Y102150
X142750Y102150
X152750Y102150
X162750Y102150
X172750Y102150
X182750Y102150
X192750Y102150
X202750Y102150
X212750Y102150
X222750Y102150
X232750Y102150
T05
X275278Y127234
X286278Y127234
X266998Y148387
X256998Y148387
X246998Y148387
X236998Y148387
X226998Y148387
X226998Y158387
X236998Y158387
X246998Y158387
X256998Y158387
X266998Y158387
X319887Y158387
X329887Y158387
X339887Y158387
X349887Y158387
X359887Y158387
X359887Y148387
X349887Y148387
X339887Y148387
X329887Y148387
X319887Y148387
X175609Y148087
X165609Y148087
X155609Y148087
X145609Y148087
X135609Y148087
X135609Y158087
X145609Y158087
X155609Y158087
X165609Y158087
X175609Y158087
X20935Y77616
X20935Y66616
M30
