G75*
%MOIN*%
%OFA0B0*%
%FSLAX25Y25*%
%IPPOS*%
%LPD*%
%AMOC8*
5,1,8,0,0,1.08239X$1,22.5*
%
%ADD10C,0.00000*%
%ADD11C,0.02200*%
%ADD12C,0.00800*%
D10*
X0001250Y0001250D02*
X0001250Y0115423D01*
X0093046Y0196762D01*
X0359697Y0196762D01*
X0360458Y0196753D01*
X0361218Y0196725D01*
X0361977Y0196679D01*
X0362735Y0196615D01*
X0363491Y0196533D01*
X0364245Y0196432D01*
X0364996Y0196313D01*
X0365744Y0196176D01*
X0366489Y0196021D01*
X0367229Y0195847D01*
X0367965Y0195656D01*
X0368697Y0195448D01*
X0369423Y0195222D01*
X0370143Y0194978D01*
X0370858Y0194717D01*
X0371566Y0194438D01*
X0372267Y0194143D01*
X0372960Y0193831D01*
X0373646Y0193502D01*
X0374324Y0193157D01*
X0374993Y0192795D01*
X0375653Y0192418D01*
X0376304Y0192024D01*
X0376945Y0191615D01*
X0377576Y0191191D01*
X0378197Y0190751D01*
X0378807Y0190297D01*
X0379406Y0189827D01*
X0379993Y0189344D01*
X0380568Y0188847D01*
X0381131Y0188335D01*
X0381682Y0187811D01*
X0382220Y0187273D01*
X0382744Y0186722D01*
X0383256Y0186159D01*
X0383753Y0185584D01*
X0384236Y0184997D01*
X0384706Y0184398D01*
X0385160Y0183788D01*
X0385600Y0183167D01*
X0386024Y0182536D01*
X0386433Y0181895D01*
X0386827Y0181244D01*
X0387204Y0180584D01*
X0387566Y0179915D01*
X0387911Y0179237D01*
X0388240Y0178551D01*
X0388552Y0177858D01*
X0388847Y0177157D01*
X0389126Y0176449D01*
X0389387Y0175734D01*
X0389631Y0175014D01*
X0389857Y0174288D01*
X0390065Y0173556D01*
X0390256Y0172820D01*
X0390430Y0172080D01*
X0390585Y0171335D01*
X0390722Y0170587D01*
X0390841Y0169836D01*
X0390942Y0169082D01*
X0391024Y0168326D01*
X0391088Y0167568D01*
X0391134Y0166809D01*
X0391162Y0166049D01*
X0391171Y0165288D01*
X0391171Y0001250D01*
X0001250Y0001250D01*
D11*
X0099630Y0056742D02*
X0098030Y0061542D01*
X0100163Y0061542D02*
X0099096Y0058342D01*
X0099630Y0056742D02*
X0100163Y0056742D01*
X0102778Y0058342D02*
X0103978Y0060609D01*
X0104912Y0059942D02*
X0102778Y0061542D01*
X0104912Y0063142D02*
X0104912Y0058342D01*
X0108491Y0059409D02*
X0108491Y0060475D01*
X0108493Y0060539D01*
X0108499Y0060604D01*
X0108508Y0060667D01*
X0108522Y0060730D01*
X0108539Y0060792D01*
X0108560Y0060853D01*
X0108585Y0060913D01*
X0108613Y0060971D01*
X0108645Y0061027D01*
X0108680Y0061081D01*
X0108718Y0061133D01*
X0108759Y0061183D01*
X0108804Y0061229D01*
X0108850Y0061274D01*
X0108900Y0061315D01*
X0108952Y0061353D01*
X0109006Y0061388D01*
X0109062Y0061420D01*
X0109120Y0061448D01*
X0109180Y0061473D01*
X0109241Y0061494D01*
X0109303Y0061511D01*
X0109366Y0061525D01*
X0109429Y0061534D01*
X0109494Y0061540D01*
X0109558Y0061542D01*
X0109622Y0061540D01*
X0109687Y0061534D01*
X0109750Y0061525D01*
X0109813Y0061511D01*
X0109875Y0061494D01*
X0109936Y0061473D01*
X0109996Y0061448D01*
X0110054Y0061420D01*
X0110110Y0061388D01*
X0110164Y0061353D01*
X0110216Y0061315D01*
X0110266Y0061274D01*
X0110312Y0061229D01*
X0110357Y0061183D01*
X0110398Y0061133D01*
X0110436Y0061081D01*
X0110471Y0061027D01*
X0110503Y0060971D01*
X0110531Y0060913D01*
X0110556Y0060853D01*
X0110577Y0060792D01*
X0110594Y0060730D01*
X0110608Y0060667D01*
X0110617Y0060604D01*
X0110623Y0060539D01*
X0110625Y0060475D01*
X0110625Y0059409D01*
X0110623Y0059345D01*
X0110617Y0059280D01*
X0110608Y0059217D01*
X0110594Y0059154D01*
X0110577Y0059092D01*
X0110556Y0059031D01*
X0110531Y0058971D01*
X0110503Y0058913D01*
X0110471Y0058857D01*
X0110436Y0058803D01*
X0110398Y0058751D01*
X0110357Y0058701D01*
X0110312Y0058655D01*
X0110266Y0058610D01*
X0110216Y0058569D01*
X0110164Y0058531D01*
X0110110Y0058496D01*
X0110054Y0058464D01*
X0109996Y0058436D01*
X0109936Y0058411D01*
X0109875Y0058390D01*
X0109813Y0058373D01*
X0109750Y0058359D01*
X0109687Y0058350D01*
X0109622Y0058344D01*
X0109558Y0058342D01*
X0109494Y0058344D01*
X0109429Y0058350D01*
X0109366Y0058359D01*
X0109303Y0058373D01*
X0109241Y0058390D01*
X0109180Y0058411D01*
X0109120Y0058436D01*
X0109062Y0058464D01*
X0109006Y0058496D01*
X0108952Y0058531D01*
X0108900Y0058569D01*
X0108850Y0058610D01*
X0108804Y0058655D01*
X0108759Y0058701D01*
X0108718Y0058751D01*
X0108680Y0058803D01*
X0108645Y0058857D01*
X0108613Y0058913D01*
X0108585Y0058971D01*
X0108560Y0059031D01*
X0108539Y0059092D01*
X0108522Y0059154D01*
X0108508Y0059217D01*
X0108499Y0059280D01*
X0108493Y0059345D01*
X0108491Y0059409D01*
X0113596Y0058342D02*
X0113863Y0058342D01*
X0113918Y0058344D01*
X0113972Y0058349D01*
X0114026Y0058359D01*
X0114079Y0058372D01*
X0114131Y0058388D01*
X0114182Y0058408D01*
X0114231Y0058432D01*
X0114279Y0058458D01*
X0114324Y0058488D01*
X0114368Y0058521D01*
X0114409Y0058557D01*
X0114448Y0058596D01*
X0114484Y0058637D01*
X0114517Y0058681D01*
X0114547Y0058726D01*
X0114573Y0058774D01*
X0114597Y0058823D01*
X0114617Y0058874D01*
X0114633Y0058926D01*
X0114646Y0058979D01*
X0114656Y0059033D01*
X0114661Y0059087D01*
X0114663Y0059142D01*
X0114663Y0063142D01*
X0115196Y0061542D02*
X0113596Y0061542D01*
X0113560Y0064616D02*
X0113827Y0064616D01*
X0113560Y0064616D02*
X0113505Y0064618D01*
X0113451Y0064623D01*
X0113397Y0064633D01*
X0113344Y0064646D01*
X0113292Y0064662D01*
X0113241Y0064682D01*
X0113192Y0064706D01*
X0113144Y0064732D01*
X0113099Y0064762D01*
X0113055Y0064795D01*
X0113014Y0064831D01*
X0112975Y0064870D01*
X0112939Y0064911D01*
X0112906Y0064955D01*
X0112876Y0065000D01*
X0112850Y0065048D01*
X0112826Y0065097D01*
X0112806Y0065148D01*
X0112790Y0065200D01*
X0112777Y0065253D01*
X0112767Y0065307D01*
X0112762Y0065361D01*
X0112760Y0065416D01*
X0112760Y0069416D01*
X0112627Y0070749D02*
X0112893Y0070749D01*
X0112893Y0071016D01*
X0112627Y0071016D01*
X0112627Y0070749D01*
X0110181Y0070749D02*
X0109914Y0070749D01*
X0109914Y0071016D01*
X0110181Y0071016D01*
X0110181Y0070749D01*
X0110047Y0069416D02*
X0110047Y0066216D01*
X0106923Y0066216D02*
X0106923Y0069416D01*
X0105323Y0069416D01*
X0105323Y0068883D01*
X0102909Y0068349D02*
X0102909Y0067283D01*
X0102907Y0067219D01*
X0102901Y0067154D01*
X0102892Y0067091D01*
X0102878Y0067028D01*
X0102861Y0066966D01*
X0102840Y0066905D01*
X0102815Y0066845D01*
X0102787Y0066787D01*
X0102755Y0066731D01*
X0102720Y0066677D01*
X0102682Y0066625D01*
X0102641Y0066575D01*
X0102596Y0066529D01*
X0102550Y0066484D01*
X0102500Y0066443D01*
X0102448Y0066405D01*
X0102394Y0066370D01*
X0102338Y0066338D01*
X0102280Y0066310D01*
X0102220Y0066285D01*
X0102159Y0066264D01*
X0102097Y0066247D01*
X0102034Y0066233D01*
X0101971Y0066224D01*
X0101906Y0066218D01*
X0101842Y0066216D01*
X0101778Y0066218D01*
X0101713Y0066224D01*
X0101650Y0066233D01*
X0101587Y0066247D01*
X0101525Y0066264D01*
X0101464Y0066285D01*
X0101404Y0066310D01*
X0101346Y0066338D01*
X0101290Y0066370D01*
X0101236Y0066405D01*
X0101184Y0066443D01*
X0101134Y0066484D01*
X0101088Y0066529D01*
X0101043Y0066575D01*
X0101002Y0066625D01*
X0100964Y0066677D01*
X0100929Y0066731D01*
X0100897Y0066787D01*
X0100869Y0066845D01*
X0100844Y0066905D01*
X0100823Y0066966D01*
X0100806Y0067028D01*
X0100792Y0067091D01*
X0100783Y0067154D01*
X0100777Y0067219D01*
X0100775Y0067283D01*
X0100775Y0068349D01*
X0100777Y0068413D01*
X0100783Y0068478D01*
X0100792Y0068541D01*
X0100806Y0068604D01*
X0100823Y0068666D01*
X0100844Y0068727D01*
X0100869Y0068787D01*
X0100897Y0068845D01*
X0100929Y0068901D01*
X0100964Y0068955D01*
X0101002Y0069007D01*
X0101043Y0069057D01*
X0101088Y0069103D01*
X0101134Y0069148D01*
X0101184Y0069189D01*
X0101236Y0069227D01*
X0101290Y0069262D01*
X0101346Y0069294D01*
X0101404Y0069322D01*
X0101464Y0069347D01*
X0101525Y0069368D01*
X0101587Y0069385D01*
X0101650Y0069399D01*
X0101713Y0069408D01*
X0101778Y0069414D01*
X0101842Y0069416D01*
X0101906Y0069414D01*
X0101971Y0069408D01*
X0102034Y0069399D01*
X0102097Y0069385D01*
X0102159Y0069368D01*
X0102220Y0069347D01*
X0102280Y0069322D01*
X0102338Y0069294D01*
X0102394Y0069262D01*
X0102448Y0069227D01*
X0102500Y0069189D01*
X0102550Y0069148D01*
X0102596Y0069103D01*
X0102641Y0069057D01*
X0102682Y0069007D01*
X0102720Y0068955D01*
X0102755Y0068901D01*
X0102787Y0068845D01*
X0102815Y0068787D01*
X0102840Y0068727D01*
X0102861Y0068666D01*
X0102878Y0068604D01*
X0102892Y0068541D01*
X0102901Y0068478D01*
X0102907Y0068413D01*
X0102909Y0068349D01*
X0095342Y0072490D02*
X0095342Y0077290D01*
X0094008Y0077290D01*
X0093953Y0077288D01*
X0093899Y0077283D01*
X0093845Y0077273D01*
X0093792Y0077260D01*
X0093740Y0077244D01*
X0093689Y0077224D01*
X0093640Y0077200D01*
X0093592Y0077174D01*
X0093547Y0077144D01*
X0093503Y0077111D01*
X0093462Y0077075D01*
X0093423Y0077036D01*
X0093387Y0076995D01*
X0093354Y0076951D01*
X0093324Y0076906D01*
X0093298Y0076858D01*
X0093274Y0076809D01*
X0093254Y0076758D01*
X0093238Y0076706D01*
X0093225Y0076653D01*
X0093215Y0076599D01*
X0093210Y0076545D01*
X0093208Y0076490D01*
X0093208Y0074890D01*
X0093210Y0074835D01*
X0093215Y0074781D01*
X0093225Y0074727D01*
X0093238Y0074674D01*
X0093254Y0074622D01*
X0093274Y0074571D01*
X0093298Y0074522D01*
X0093324Y0074474D01*
X0093354Y0074429D01*
X0093387Y0074385D01*
X0093423Y0074344D01*
X0093462Y0074305D01*
X0093503Y0074269D01*
X0093547Y0074236D01*
X0093592Y0074206D01*
X0093640Y0074180D01*
X0093689Y0074156D01*
X0093740Y0074136D01*
X0093792Y0074120D01*
X0093845Y0074107D01*
X0093899Y0074097D01*
X0093953Y0074092D01*
X0094008Y0074090D01*
X0095342Y0074090D01*
X0099315Y0074090D02*
X0099315Y0076490D01*
X0099317Y0076545D01*
X0099322Y0076599D01*
X0099332Y0076653D01*
X0099345Y0076706D01*
X0099361Y0076758D01*
X0099381Y0076809D01*
X0099405Y0076858D01*
X0099431Y0076906D01*
X0099461Y0076951D01*
X0099494Y0076995D01*
X0099530Y0077036D01*
X0099569Y0077075D01*
X0099610Y0077111D01*
X0099654Y0077144D01*
X0099699Y0077174D01*
X0099747Y0077200D01*
X0099796Y0077224D01*
X0099847Y0077244D01*
X0099899Y0077260D01*
X0099952Y0077273D01*
X0100006Y0077283D01*
X0100060Y0077288D01*
X0100115Y0077290D01*
X0102515Y0077290D01*
X0102515Y0074090D01*
X0100915Y0074090D02*
X0100915Y0077290D01*
X0106207Y0076223D02*
X0106207Y0075157D01*
X0106209Y0075093D01*
X0106215Y0075028D01*
X0106224Y0074965D01*
X0106238Y0074902D01*
X0106255Y0074840D01*
X0106276Y0074779D01*
X0106301Y0074719D01*
X0106329Y0074661D01*
X0106361Y0074605D01*
X0106396Y0074551D01*
X0106434Y0074499D01*
X0106475Y0074449D01*
X0106520Y0074403D01*
X0106566Y0074358D01*
X0106616Y0074317D01*
X0106668Y0074279D01*
X0106722Y0074244D01*
X0106778Y0074212D01*
X0106836Y0074184D01*
X0106896Y0074159D01*
X0106957Y0074138D01*
X0107019Y0074121D01*
X0107082Y0074107D01*
X0107145Y0074098D01*
X0107210Y0074092D01*
X0107274Y0074090D01*
X0107338Y0074092D01*
X0107403Y0074098D01*
X0107466Y0074107D01*
X0107529Y0074121D01*
X0107591Y0074138D01*
X0107652Y0074159D01*
X0107712Y0074184D01*
X0107770Y0074212D01*
X0107826Y0074244D01*
X0107880Y0074279D01*
X0107932Y0074317D01*
X0107982Y0074358D01*
X0108028Y0074403D01*
X0108073Y0074449D01*
X0108114Y0074499D01*
X0108152Y0074551D01*
X0108187Y0074605D01*
X0108219Y0074661D01*
X0108247Y0074719D01*
X0108272Y0074779D01*
X0108293Y0074840D01*
X0108310Y0074902D01*
X0108324Y0074965D01*
X0108333Y0075028D01*
X0108339Y0075093D01*
X0108341Y0075157D01*
X0108341Y0076223D01*
X0108339Y0076287D01*
X0108333Y0076352D01*
X0108324Y0076415D01*
X0108310Y0076478D01*
X0108293Y0076540D01*
X0108272Y0076601D01*
X0108247Y0076661D01*
X0108219Y0076719D01*
X0108187Y0076775D01*
X0108152Y0076829D01*
X0108114Y0076881D01*
X0108073Y0076931D01*
X0108028Y0076977D01*
X0107982Y0077022D01*
X0107932Y0077063D01*
X0107880Y0077101D01*
X0107826Y0077136D01*
X0107770Y0077168D01*
X0107712Y0077196D01*
X0107652Y0077221D01*
X0107591Y0077242D01*
X0107529Y0077259D01*
X0107466Y0077273D01*
X0107403Y0077282D01*
X0107338Y0077288D01*
X0107274Y0077290D01*
X0107210Y0077288D01*
X0107145Y0077282D01*
X0107082Y0077273D01*
X0107019Y0077259D01*
X0106957Y0077242D01*
X0106896Y0077221D01*
X0106836Y0077196D01*
X0106778Y0077168D01*
X0106722Y0077136D01*
X0106668Y0077101D01*
X0106616Y0077063D01*
X0106566Y0077022D01*
X0106520Y0076977D01*
X0106475Y0076931D01*
X0106434Y0076881D01*
X0106396Y0076829D01*
X0106361Y0076775D01*
X0106329Y0076719D01*
X0106301Y0076661D01*
X0106276Y0076601D01*
X0106255Y0076540D01*
X0106238Y0076478D01*
X0106224Y0076415D01*
X0106215Y0076352D01*
X0106209Y0076287D01*
X0106207Y0076223D01*
X0111233Y0074090D02*
X0112300Y0074090D01*
X0112364Y0074092D01*
X0112429Y0074098D01*
X0112492Y0074107D01*
X0112555Y0074121D01*
X0112617Y0074138D01*
X0112678Y0074159D01*
X0112738Y0074184D01*
X0112796Y0074212D01*
X0112852Y0074244D01*
X0112906Y0074279D01*
X0112958Y0074317D01*
X0113008Y0074358D01*
X0113054Y0074403D01*
X0113099Y0074449D01*
X0113140Y0074499D01*
X0113178Y0074551D01*
X0113213Y0074605D01*
X0113245Y0074661D01*
X0113273Y0074719D01*
X0113298Y0074779D01*
X0113319Y0074840D01*
X0113336Y0074902D01*
X0113350Y0074965D01*
X0113359Y0075028D01*
X0113365Y0075093D01*
X0113367Y0075157D01*
X0113366Y0075157D02*
X0113366Y0077823D01*
X0113367Y0077823D02*
X0113365Y0077887D01*
X0113359Y0077952D01*
X0113350Y0078015D01*
X0113336Y0078078D01*
X0113319Y0078140D01*
X0113298Y0078201D01*
X0113273Y0078261D01*
X0113245Y0078319D01*
X0113213Y0078375D01*
X0113178Y0078429D01*
X0113140Y0078481D01*
X0113099Y0078531D01*
X0113054Y0078577D01*
X0113008Y0078622D01*
X0112958Y0078663D01*
X0112906Y0078701D01*
X0112852Y0078736D01*
X0112796Y0078768D01*
X0112738Y0078796D01*
X0112678Y0078821D01*
X0112617Y0078842D01*
X0112555Y0078859D01*
X0112492Y0078873D01*
X0112429Y0078882D01*
X0112364Y0078888D01*
X0112300Y0078890D01*
X0111233Y0078890D01*
X0120095Y0075157D02*
X0122762Y0075157D01*
X0121695Y0078890D01*
X0120895Y0076223D02*
X0120895Y0074090D01*
X0122171Y0069416D02*
X0124571Y0069416D01*
X0124571Y0066216D01*
X0122971Y0066216D02*
X0122971Y0069416D01*
X0122171Y0069416D02*
X0122116Y0069414D01*
X0122062Y0069409D01*
X0122008Y0069399D01*
X0121955Y0069386D01*
X0121903Y0069370D01*
X0121852Y0069350D01*
X0121803Y0069326D01*
X0121755Y0069300D01*
X0121710Y0069270D01*
X0121666Y0069237D01*
X0121625Y0069201D01*
X0121586Y0069162D01*
X0121550Y0069121D01*
X0121517Y0069077D01*
X0121487Y0069032D01*
X0121461Y0068984D01*
X0121437Y0068935D01*
X0121417Y0068884D01*
X0121401Y0068832D01*
X0121388Y0068779D01*
X0121378Y0068725D01*
X0121373Y0068671D01*
X0121371Y0068616D01*
X0121371Y0066216D01*
X0116821Y0066216D02*
X0115621Y0066216D01*
X0115621Y0068616D01*
X0115621Y0068083D02*
X0116821Y0068083D01*
X0115621Y0068616D02*
X0115623Y0068671D01*
X0115628Y0068725D01*
X0115638Y0068779D01*
X0115651Y0068832D01*
X0115667Y0068884D01*
X0115687Y0068935D01*
X0115711Y0068984D01*
X0115737Y0069032D01*
X0115767Y0069077D01*
X0115800Y0069121D01*
X0115836Y0069162D01*
X0115875Y0069201D01*
X0115916Y0069237D01*
X0115960Y0069270D01*
X0116005Y0069300D01*
X0116053Y0069326D01*
X0116102Y0069350D01*
X0116153Y0069370D01*
X0116205Y0069386D01*
X0116258Y0069399D01*
X0116312Y0069409D01*
X0116366Y0069414D01*
X0116421Y0069416D01*
X0117487Y0069416D01*
X0116821Y0068082D02*
X0116881Y0068080D01*
X0116940Y0068074D01*
X0116999Y0068065D01*
X0117058Y0068051D01*
X0117115Y0068034D01*
X0117171Y0068014D01*
X0117226Y0067990D01*
X0117279Y0067962D01*
X0117330Y0067931D01*
X0117379Y0067897D01*
X0117426Y0067859D01*
X0117470Y0067819D01*
X0117512Y0067776D01*
X0117550Y0067731D01*
X0117586Y0067683D01*
X0117619Y0067633D01*
X0117648Y0067581D01*
X0117674Y0067527D01*
X0117697Y0067471D01*
X0117715Y0067414D01*
X0117731Y0067357D01*
X0117742Y0067298D01*
X0117750Y0067239D01*
X0117754Y0067179D01*
X0117754Y0067119D01*
X0117750Y0067059D01*
X0117742Y0067000D01*
X0117731Y0066941D01*
X0117715Y0066884D01*
X0117697Y0066827D01*
X0117674Y0066771D01*
X0117648Y0066717D01*
X0117619Y0066665D01*
X0117586Y0066615D01*
X0117550Y0066567D01*
X0117512Y0066522D01*
X0117470Y0066479D01*
X0117426Y0066439D01*
X0117379Y0066401D01*
X0117330Y0066367D01*
X0117279Y0066336D01*
X0117226Y0066308D01*
X0117171Y0066284D01*
X0117115Y0066264D01*
X0117058Y0066247D01*
X0116999Y0066233D01*
X0116940Y0066224D01*
X0116881Y0066218D01*
X0116821Y0066216D01*
X0124732Y0061542D02*
X0124732Y0061009D01*
X0124732Y0061542D02*
X0126332Y0061542D01*
X0126332Y0058342D01*
X0129456Y0058342D02*
X0129456Y0061542D01*
X0129323Y0062875D02*
X0129589Y0062875D01*
X0129589Y0063142D01*
X0129323Y0063142D01*
X0129323Y0062875D01*
X0132036Y0062875D02*
X0132302Y0062875D01*
X0132302Y0063142D01*
X0132036Y0063142D01*
X0132036Y0062875D01*
X0132169Y0061542D02*
X0132169Y0057542D01*
X0132171Y0057487D01*
X0132176Y0057433D01*
X0132186Y0057379D01*
X0132199Y0057326D01*
X0132215Y0057274D01*
X0132235Y0057223D01*
X0132259Y0057174D01*
X0132285Y0057126D01*
X0132315Y0057081D01*
X0132348Y0057037D01*
X0132384Y0056996D01*
X0132423Y0056957D01*
X0132464Y0056921D01*
X0132508Y0056888D01*
X0132553Y0056858D01*
X0132601Y0056832D01*
X0132650Y0056808D01*
X0132701Y0056788D01*
X0132753Y0056772D01*
X0132806Y0056759D01*
X0132860Y0056749D01*
X0132914Y0056744D01*
X0132969Y0056742D01*
X0133236Y0056742D01*
X0135029Y0058342D02*
X0135029Y0060742D01*
X0135029Y0060209D02*
X0136229Y0060209D01*
X0135029Y0060742D02*
X0135031Y0060797D01*
X0135036Y0060851D01*
X0135046Y0060905D01*
X0135059Y0060958D01*
X0135075Y0061010D01*
X0135095Y0061061D01*
X0135119Y0061110D01*
X0135145Y0061158D01*
X0135175Y0061203D01*
X0135208Y0061247D01*
X0135244Y0061288D01*
X0135283Y0061327D01*
X0135324Y0061363D01*
X0135368Y0061396D01*
X0135413Y0061426D01*
X0135461Y0061452D01*
X0135510Y0061476D01*
X0135561Y0061496D01*
X0135613Y0061512D01*
X0135666Y0061525D01*
X0135720Y0061535D01*
X0135774Y0061540D01*
X0135829Y0061542D01*
X0136896Y0061542D01*
X0140779Y0060742D02*
X0140779Y0058342D01*
X0142379Y0058342D02*
X0142379Y0061542D01*
X0141579Y0061542D02*
X0143979Y0061542D01*
X0143979Y0058342D01*
X0147042Y0058342D02*
X0147097Y0058344D01*
X0147151Y0058349D01*
X0147205Y0058359D01*
X0147258Y0058372D01*
X0147310Y0058388D01*
X0147361Y0058408D01*
X0147410Y0058432D01*
X0147458Y0058458D01*
X0147503Y0058488D01*
X0147547Y0058521D01*
X0147588Y0058557D01*
X0147627Y0058596D01*
X0147663Y0058637D01*
X0147696Y0058681D01*
X0147726Y0058726D01*
X0147752Y0058774D01*
X0147776Y0058823D01*
X0147796Y0058874D01*
X0147812Y0058926D01*
X0147825Y0058979D01*
X0147835Y0059033D01*
X0147840Y0059087D01*
X0147842Y0059142D01*
X0147842Y0063142D01*
X0151235Y0060742D02*
X0151235Y0058342D01*
X0152435Y0058342D01*
X0152495Y0058344D01*
X0152554Y0058350D01*
X0152613Y0058359D01*
X0152672Y0058373D01*
X0152729Y0058390D01*
X0152785Y0058410D01*
X0152840Y0058434D01*
X0152893Y0058462D01*
X0152944Y0058493D01*
X0152993Y0058527D01*
X0153040Y0058565D01*
X0153084Y0058605D01*
X0153126Y0058648D01*
X0153164Y0058693D01*
X0153200Y0058741D01*
X0153233Y0058791D01*
X0153262Y0058843D01*
X0153288Y0058897D01*
X0153311Y0058953D01*
X0153329Y0059010D01*
X0153345Y0059067D01*
X0153356Y0059126D01*
X0153364Y0059185D01*
X0153368Y0059245D01*
X0153368Y0059305D01*
X0153364Y0059365D01*
X0153356Y0059424D01*
X0153345Y0059483D01*
X0153329Y0059540D01*
X0153311Y0059597D01*
X0153288Y0059653D01*
X0153262Y0059707D01*
X0153233Y0059759D01*
X0153200Y0059809D01*
X0153164Y0059857D01*
X0153126Y0059902D01*
X0153084Y0059945D01*
X0153040Y0059985D01*
X0152993Y0060023D01*
X0152944Y0060057D01*
X0152893Y0060088D01*
X0152840Y0060116D01*
X0152785Y0060140D01*
X0152729Y0060160D01*
X0152672Y0060177D01*
X0152613Y0060191D01*
X0152554Y0060200D01*
X0152495Y0060206D01*
X0152435Y0060208D01*
X0152435Y0060209D02*
X0151235Y0060209D01*
X0151235Y0060742D02*
X0151237Y0060797D01*
X0151242Y0060851D01*
X0151252Y0060905D01*
X0151265Y0060958D01*
X0151281Y0061010D01*
X0151301Y0061061D01*
X0151325Y0061110D01*
X0151351Y0061158D01*
X0151381Y0061203D01*
X0151414Y0061247D01*
X0151450Y0061288D01*
X0151489Y0061327D01*
X0151530Y0061363D01*
X0151574Y0061396D01*
X0151619Y0061426D01*
X0151667Y0061452D01*
X0151716Y0061476D01*
X0151767Y0061496D01*
X0151819Y0061512D01*
X0151872Y0061525D01*
X0151926Y0061535D01*
X0151980Y0061540D01*
X0152035Y0061542D01*
X0153102Y0061542D01*
X0159036Y0061542D02*
X0159836Y0058342D01*
X0160636Y0060475D01*
X0161436Y0058342D01*
X0162236Y0061542D01*
X0165601Y0061542D02*
X0166401Y0058342D01*
X0167201Y0060475D01*
X0168001Y0058342D01*
X0168801Y0061542D01*
X0172165Y0061542D02*
X0172965Y0058342D01*
X0173765Y0060475D01*
X0174565Y0058342D01*
X0175365Y0061542D01*
X0178442Y0063675D02*
X0180575Y0057809D01*
X0185499Y0057809D02*
X0183365Y0063675D01*
X0182562Y0066216D02*
X0179895Y0066216D01*
X0181229Y0066216D02*
X0181229Y0071016D01*
X0182562Y0069949D01*
X0188717Y0068616D02*
X0188715Y0068496D01*
X0188710Y0068377D01*
X0188701Y0068258D01*
X0188688Y0068139D01*
X0188672Y0068020D01*
X0188652Y0067902D01*
X0188629Y0067785D01*
X0188602Y0067668D01*
X0188571Y0067553D01*
X0188537Y0067438D01*
X0188500Y0067324D01*
X0188459Y0067212D01*
X0188415Y0067101D01*
X0188368Y0066991D01*
X0188317Y0066882D01*
X0188449Y0067283D02*
X0186316Y0069949D01*
X0186449Y0070349D02*
X0186471Y0070406D01*
X0186496Y0070462D01*
X0186525Y0070516D01*
X0186557Y0070569D01*
X0186592Y0070619D01*
X0186630Y0070667D01*
X0186671Y0070712D01*
X0186714Y0070755D01*
X0186761Y0070795D01*
X0186809Y0070832D01*
X0186860Y0070866D01*
X0186913Y0070897D01*
X0186968Y0070924D01*
X0187024Y0070948D01*
X0187082Y0070969D01*
X0187141Y0070986D01*
X0187200Y0070999D01*
X0187261Y0071008D01*
X0187322Y0071014D01*
X0187383Y0071016D01*
X0187444Y0071014D01*
X0187505Y0071008D01*
X0187566Y0070999D01*
X0187625Y0070986D01*
X0187684Y0070969D01*
X0187742Y0070948D01*
X0187798Y0070924D01*
X0187853Y0070897D01*
X0187906Y0070866D01*
X0187957Y0070832D01*
X0188005Y0070795D01*
X0188052Y0070755D01*
X0188095Y0070712D01*
X0188136Y0070667D01*
X0188174Y0070619D01*
X0188209Y0070569D01*
X0188241Y0070516D01*
X0188270Y0070462D01*
X0188295Y0070406D01*
X0188317Y0070349D01*
X0186449Y0070350D02*
X0186398Y0070241D01*
X0186351Y0070131D01*
X0186307Y0070020D01*
X0186266Y0069908D01*
X0186229Y0069794D01*
X0186195Y0069679D01*
X0186164Y0069564D01*
X0186137Y0069447D01*
X0186114Y0069330D01*
X0186094Y0069212D01*
X0186078Y0069093D01*
X0186065Y0068974D01*
X0186056Y0068855D01*
X0186051Y0068736D01*
X0186049Y0068616D01*
X0188717Y0068616D02*
X0188715Y0068736D01*
X0188710Y0068855D01*
X0188701Y0068974D01*
X0188688Y0069093D01*
X0188672Y0069212D01*
X0188652Y0069330D01*
X0188629Y0069447D01*
X0188602Y0069564D01*
X0188571Y0069679D01*
X0188537Y0069794D01*
X0188500Y0069908D01*
X0188459Y0070020D01*
X0188415Y0070131D01*
X0188368Y0070241D01*
X0188317Y0070350D01*
X0186049Y0068616D02*
X0186051Y0068496D01*
X0186056Y0068377D01*
X0186065Y0068258D01*
X0186078Y0068139D01*
X0186094Y0068020D01*
X0186114Y0067902D01*
X0186137Y0067785D01*
X0186164Y0067668D01*
X0186195Y0067553D01*
X0186229Y0067438D01*
X0186266Y0067324D01*
X0186307Y0067212D01*
X0186351Y0067101D01*
X0186398Y0066991D01*
X0186449Y0066882D01*
X0187383Y0066216D02*
X0187444Y0066218D01*
X0187505Y0066224D01*
X0187566Y0066233D01*
X0187625Y0066246D01*
X0187684Y0066263D01*
X0187742Y0066284D01*
X0187798Y0066308D01*
X0187853Y0066335D01*
X0187906Y0066366D01*
X0187957Y0066400D01*
X0188005Y0066437D01*
X0188052Y0066477D01*
X0188095Y0066520D01*
X0188136Y0066565D01*
X0188174Y0066613D01*
X0188209Y0066663D01*
X0188241Y0066716D01*
X0188270Y0066770D01*
X0188295Y0066826D01*
X0188317Y0066883D01*
X0187383Y0066216D02*
X0187322Y0066218D01*
X0187261Y0066224D01*
X0187200Y0066233D01*
X0187141Y0066246D01*
X0187082Y0066263D01*
X0187024Y0066284D01*
X0186968Y0066308D01*
X0186913Y0066335D01*
X0186860Y0066366D01*
X0186809Y0066400D01*
X0186761Y0066437D01*
X0186714Y0066477D01*
X0186671Y0066520D01*
X0186630Y0066565D01*
X0186592Y0066613D01*
X0186557Y0066663D01*
X0186525Y0066716D01*
X0186496Y0066770D01*
X0186471Y0066826D01*
X0186449Y0066883D01*
X0192203Y0066216D02*
X0194870Y0066216D01*
X0192603Y0068883D01*
X0193403Y0071016D02*
X0193481Y0071014D01*
X0193558Y0071008D01*
X0193635Y0070998D01*
X0193711Y0070985D01*
X0193787Y0070967D01*
X0193861Y0070946D01*
X0193935Y0070921D01*
X0194007Y0070893D01*
X0194078Y0070861D01*
X0194146Y0070825D01*
X0194213Y0070786D01*
X0194278Y0070743D01*
X0194341Y0070698D01*
X0194401Y0070649D01*
X0194459Y0070597D01*
X0194514Y0070543D01*
X0194567Y0070486D01*
X0194616Y0070426D01*
X0194662Y0070364D01*
X0194706Y0070299D01*
X0194745Y0070233D01*
X0194782Y0070164D01*
X0194815Y0070094D01*
X0194844Y0070022D01*
X0194870Y0069949D01*
X0192603Y0068883D02*
X0192554Y0068932D01*
X0192508Y0068984D01*
X0192464Y0069038D01*
X0192424Y0069095D01*
X0192386Y0069153D01*
X0192352Y0069214D01*
X0192321Y0069276D01*
X0192294Y0069340D01*
X0192270Y0069406D01*
X0192250Y0069472D01*
X0192233Y0069540D01*
X0192220Y0069608D01*
X0192211Y0069677D01*
X0192205Y0069746D01*
X0192203Y0069816D01*
X0192205Y0069883D01*
X0192211Y0069950D01*
X0192220Y0070017D01*
X0192233Y0070083D01*
X0192250Y0070148D01*
X0192270Y0070212D01*
X0192294Y0070275D01*
X0192322Y0070337D01*
X0192353Y0070396D01*
X0192387Y0070454D01*
X0192424Y0070510D01*
X0192465Y0070564D01*
X0192508Y0070616D01*
X0192554Y0070665D01*
X0192603Y0070711D01*
X0192655Y0070754D01*
X0192709Y0070795D01*
X0192765Y0070832D01*
X0192823Y0070866D01*
X0192882Y0070897D01*
X0192944Y0070925D01*
X0193007Y0070949D01*
X0193071Y0070969D01*
X0193136Y0070986D01*
X0193202Y0070999D01*
X0193269Y0071008D01*
X0193336Y0071014D01*
X0193403Y0071016D01*
X0193445Y0072490D02*
X0194511Y0072490D01*
X0193445Y0072490D02*
X0193390Y0072492D01*
X0193336Y0072497D01*
X0193282Y0072507D01*
X0193229Y0072520D01*
X0193177Y0072536D01*
X0193126Y0072556D01*
X0193077Y0072580D01*
X0193029Y0072606D01*
X0192984Y0072636D01*
X0192940Y0072669D01*
X0192899Y0072705D01*
X0192860Y0072744D01*
X0192824Y0072785D01*
X0192791Y0072829D01*
X0192761Y0072874D01*
X0192735Y0072922D01*
X0192711Y0072971D01*
X0192691Y0073022D01*
X0192675Y0073074D01*
X0192662Y0073127D01*
X0192652Y0073181D01*
X0192647Y0073235D01*
X0192645Y0073290D01*
X0192645Y0077290D01*
X0193978Y0077290D01*
X0194033Y0077288D01*
X0194087Y0077283D01*
X0194141Y0077273D01*
X0194194Y0077260D01*
X0194246Y0077244D01*
X0194297Y0077224D01*
X0194346Y0077200D01*
X0194394Y0077174D01*
X0194439Y0077144D01*
X0194483Y0077111D01*
X0194524Y0077075D01*
X0194563Y0077036D01*
X0194599Y0076995D01*
X0194632Y0076951D01*
X0194662Y0076906D01*
X0194688Y0076858D01*
X0194712Y0076809D01*
X0194732Y0076758D01*
X0194748Y0076706D01*
X0194761Y0076653D01*
X0194771Y0076599D01*
X0194776Y0076545D01*
X0194778Y0076490D01*
X0194778Y0074890D01*
X0194776Y0074835D01*
X0194771Y0074781D01*
X0194761Y0074727D01*
X0194748Y0074674D01*
X0194732Y0074622D01*
X0194712Y0074571D01*
X0194688Y0074522D01*
X0194662Y0074474D01*
X0194632Y0074429D01*
X0194599Y0074385D01*
X0194563Y0074344D01*
X0194524Y0074305D01*
X0194483Y0074269D01*
X0194439Y0074236D01*
X0194394Y0074206D01*
X0194346Y0074180D01*
X0194297Y0074156D01*
X0194246Y0074136D01*
X0194194Y0074120D01*
X0194141Y0074107D01*
X0194087Y0074097D01*
X0194033Y0074092D01*
X0193978Y0074090D01*
X0192645Y0074090D01*
X0188958Y0074090D02*
X0188958Y0077290D01*
X0187625Y0077290D01*
X0187570Y0077288D01*
X0187516Y0077283D01*
X0187462Y0077273D01*
X0187409Y0077260D01*
X0187357Y0077244D01*
X0187306Y0077224D01*
X0187257Y0077200D01*
X0187209Y0077174D01*
X0187164Y0077144D01*
X0187120Y0077111D01*
X0187079Y0077075D01*
X0187040Y0077036D01*
X0187004Y0076995D01*
X0186971Y0076951D01*
X0186941Y0076906D01*
X0186915Y0076858D01*
X0186891Y0076809D01*
X0186871Y0076758D01*
X0186855Y0076706D01*
X0186842Y0076653D01*
X0186832Y0076599D01*
X0186827Y0076545D01*
X0186825Y0076490D01*
X0186825Y0074090D01*
X0183420Y0074890D02*
X0183420Y0076223D01*
X0183420Y0075690D02*
X0181286Y0075690D01*
X0181286Y0076223D01*
X0181288Y0076287D01*
X0181294Y0076352D01*
X0181303Y0076415D01*
X0181317Y0076478D01*
X0181334Y0076540D01*
X0181355Y0076601D01*
X0181380Y0076661D01*
X0181408Y0076719D01*
X0181440Y0076775D01*
X0181475Y0076829D01*
X0181513Y0076881D01*
X0181554Y0076931D01*
X0181599Y0076977D01*
X0181645Y0077022D01*
X0181695Y0077063D01*
X0181747Y0077101D01*
X0181801Y0077136D01*
X0181857Y0077168D01*
X0181915Y0077196D01*
X0181975Y0077221D01*
X0182036Y0077242D01*
X0182098Y0077259D01*
X0182161Y0077273D01*
X0182224Y0077282D01*
X0182289Y0077288D01*
X0182353Y0077290D01*
X0182417Y0077288D01*
X0182482Y0077282D01*
X0182545Y0077273D01*
X0182608Y0077259D01*
X0182670Y0077242D01*
X0182731Y0077221D01*
X0182791Y0077196D01*
X0182849Y0077168D01*
X0182905Y0077136D01*
X0182959Y0077101D01*
X0183011Y0077063D01*
X0183061Y0077022D01*
X0183107Y0076977D01*
X0183152Y0076931D01*
X0183193Y0076881D01*
X0183231Y0076829D01*
X0183266Y0076775D01*
X0183298Y0076719D01*
X0183326Y0076661D01*
X0183351Y0076601D01*
X0183372Y0076540D01*
X0183389Y0076478D01*
X0183403Y0076415D01*
X0183412Y0076352D01*
X0183418Y0076287D01*
X0183420Y0076223D01*
X0183420Y0074890D02*
X0183418Y0074835D01*
X0183413Y0074781D01*
X0183403Y0074727D01*
X0183390Y0074674D01*
X0183374Y0074622D01*
X0183354Y0074571D01*
X0183330Y0074522D01*
X0183304Y0074474D01*
X0183274Y0074429D01*
X0183241Y0074385D01*
X0183205Y0074344D01*
X0183166Y0074305D01*
X0183125Y0074269D01*
X0183081Y0074236D01*
X0183036Y0074206D01*
X0182988Y0074180D01*
X0182939Y0074156D01*
X0182888Y0074136D01*
X0182836Y0074120D01*
X0182783Y0074107D01*
X0182729Y0074097D01*
X0182675Y0074092D01*
X0182620Y0074090D01*
X0181286Y0074090D01*
X0178162Y0074890D02*
X0178162Y0076490D01*
X0178160Y0076545D01*
X0178155Y0076599D01*
X0178145Y0076653D01*
X0178132Y0076706D01*
X0178116Y0076758D01*
X0178096Y0076809D01*
X0178072Y0076858D01*
X0178046Y0076906D01*
X0178016Y0076951D01*
X0177983Y0076995D01*
X0177947Y0077036D01*
X0177908Y0077075D01*
X0177867Y0077111D01*
X0177823Y0077144D01*
X0177778Y0077174D01*
X0177730Y0077200D01*
X0177681Y0077224D01*
X0177630Y0077244D01*
X0177578Y0077260D01*
X0177525Y0077273D01*
X0177471Y0077283D01*
X0177417Y0077288D01*
X0177362Y0077290D01*
X0176029Y0077290D01*
X0176029Y0078890D02*
X0176029Y0074090D01*
X0177362Y0074090D01*
X0177417Y0074092D01*
X0177471Y0074097D01*
X0177525Y0074107D01*
X0177578Y0074120D01*
X0177630Y0074136D01*
X0177681Y0074156D01*
X0177730Y0074180D01*
X0177778Y0074206D01*
X0177823Y0074236D01*
X0177867Y0074269D01*
X0177908Y0074305D01*
X0177947Y0074344D01*
X0177983Y0074385D01*
X0178016Y0074429D01*
X0178046Y0074474D01*
X0178072Y0074522D01*
X0178096Y0074571D01*
X0178116Y0074622D01*
X0178132Y0074674D01*
X0178145Y0074727D01*
X0178155Y0074781D01*
X0178160Y0074835D01*
X0178162Y0074890D01*
X0176142Y0069949D02*
X0176140Y0069885D01*
X0176134Y0069820D01*
X0176125Y0069757D01*
X0176111Y0069694D01*
X0176094Y0069632D01*
X0176073Y0069571D01*
X0176048Y0069511D01*
X0176020Y0069453D01*
X0175988Y0069397D01*
X0175953Y0069343D01*
X0175915Y0069291D01*
X0175874Y0069241D01*
X0175829Y0069195D01*
X0175783Y0069150D01*
X0175733Y0069109D01*
X0175681Y0069071D01*
X0175627Y0069036D01*
X0175571Y0069004D01*
X0175513Y0068976D01*
X0175453Y0068951D01*
X0175392Y0068930D01*
X0175330Y0068913D01*
X0175267Y0068899D01*
X0175204Y0068890D01*
X0175139Y0068884D01*
X0175075Y0068882D01*
X0175011Y0068884D01*
X0174946Y0068890D01*
X0174883Y0068899D01*
X0174820Y0068913D01*
X0174758Y0068930D01*
X0174697Y0068951D01*
X0174637Y0068976D01*
X0174579Y0069004D01*
X0174523Y0069036D01*
X0174469Y0069071D01*
X0174417Y0069109D01*
X0174367Y0069150D01*
X0174321Y0069195D01*
X0174276Y0069241D01*
X0174235Y0069291D01*
X0174197Y0069343D01*
X0174162Y0069397D01*
X0174130Y0069453D01*
X0174102Y0069511D01*
X0174077Y0069571D01*
X0174056Y0069632D01*
X0174039Y0069694D01*
X0174025Y0069757D01*
X0174016Y0069820D01*
X0174010Y0069885D01*
X0174008Y0069949D01*
X0174010Y0070013D01*
X0174016Y0070078D01*
X0174025Y0070141D01*
X0174039Y0070204D01*
X0174056Y0070266D01*
X0174077Y0070327D01*
X0174102Y0070387D01*
X0174130Y0070445D01*
X0174162Y0070501D01*
X0174197Y0070555D01*
X0174235Y0070607D01*
X0174276Y0070657D01*
X0174321Y0070703D01*
X0174367Y0070748D01*
X0174417Y0070789D01*
X0174469Y0070827D01*
X0174523Y0070862D01*
X0174579Y0070894D01*
X0174637Y0070922D01*
X0174697Y0070947D01*
X0174758Y0070968D01*
X0174820Y0070985D01*
X0174883Y0070999D01*
X0174946Y0071008D01*
X0175011Y0071014D01*
X0175075Y0071016D01*
X0175139Y0071014D01*
X0175204Y0071008D01*
X0175267Y0070999D01*
X0175330Y0070985D01*
X0175392Y0070968D01*
X0175453Y0070947D01*
X0175513Y0070922D01*
X0175571Y0070894D01*
X0175627Y0070862D01*
X0175681Y0070827D01*
X0175733Y0070789D01*
X0175783Y0070748D01*
X0175829Y0070703D01*
X0175874Y0070657D01*
X0175915Y0070607D01*
X0175953Y0070555D01*
X0175988Y0070501D01*
X0176020Y0070445D01*
X0176048Y0070387D01*
X0176073Y0070327D01*
X0176094Y0070266D01*
X0176111Y0070204D01*
X0176125Y0070141D01*
X0176134Y0070078D01*
X0176140Y0070013D01*
X0176142Y0069949D01*
X0176408Y0067549D02*
X0176406Y0067477D01*
X0176400Y0067405D01*
X0176390Y0067333D01*
X0176377Y0067262D01*
X0176359Y0067192D01*
X0176338Y0067123D01*
X0176313Y0067056D01*
X0176285Y0066989D01*
X0176253Y0066925D01*
X0176217Y0066862D01*
X0176178Y0066801D01*
X0176136Y0066742D01*
X0176091Y0066686D01*
X0176043Y0066632D01*
X0175992Y0066581D01*
X0175938Y0066533D01*
X0175882Y0066488D01*
X0175823Y0066446D01*
X0175762Y0066407D01*
X0175699Y0066371D01*
X0175635Y0066339D01*
X0175568Y0066311D01*
X0175501Y0066286D01*
X0175432Y0066265D01*
X0175362Y0066247D01*
X0175291Y0066234D01*
X0175219Y0066224D01*
X0175147Y0066218D01*
X0175075Y0066216D01*
X0175003Y0066218D01*
X0174931Y0066224D01*
X0174859Y0066234D01*
X0174788Y0066247D01*
X0174718Y0066265D01*
X0174649Y0066286D01*
X0174582Y0066311D01*
X0174515Y0066339D01*
X0174451Y0066371D01*
X0174388Y0066407D01*
X0174327Y0066446D01*
X0174268Y0066488D01*
X0174212Y0066533D01*
X0174158Y0066581D01*
X0174107Y0066632D01*
X0174059Y0066686D01*
X0174014Y0066742D01*
X0173972Y0066801D01*
X0173933Y0066862D01*
X0173897Y0066925D01*
X0173865Y0066989D01*
X0173837Y0067056D01*
X0173812Y0067123D01*
X0173791Y0067192D01*
X0173773Y0067262D01*
X0173760Y0067333D01*
X0173750Y0067405D01*
X0173744Y0067477D01*
X0173742Y0067549D01*
X0173744Y0067621D01*
X0173750Y0067693D01*
X0173760Y0067765D01*
X0173773Y0067836D01*
X0173791Y0067906D01*
X0173812Y0067975D01*
X0173837Y0068042D01*
X0173865Y0068109D01*
X0173897Y0068173D01*
X0173933Y0068236D01*
X0173972Y0068297D01*
X0174014Y0068356D01*
X0174059Y0068412D01*
X0174107Y0068466D01*
X0174158Y0068517D01*
X0174212Y0068565D01*
X0174268Y0068610D01*
X0174327Y0068652D01*
X0174388Y0068691D01*
X0174451Y0068727D01*
X0174515Y0068759D01*
X0174582Y0068787D01*
X0174649Y0068812D01*
X0174718Y0068833D01*
X0174788Y0068851D01*
X0174859Y0068864D01*
X0174931Y0068874D01*
X0175003Y0068880D01*
X0175075Y0068882D01*
X0175147Y0068880D01*
X0175219Y0068874D01*
X0175291Y0068864D01*
X0175362Y0068851D01*
X0175432Y0068833D01*
X0175501Y0068812D01*
X0175568Y0068787D01*
X0175635Y0068759D01*
X0175699Y0068727D01*
X0175762Y0068691D01*
X0175823Y0068652D01*
X0175882Y0068610D01*
X0175938Y0068565D01*
X0175992Y0068517D01*
X0176043Y0068466D01*
X0176091Y0068412D01*
X0176136Y0068356D01*
X0176178Y0068297D01*
X0176217Y0068236D01*
X0176253Y0068173D01*
X0176285Y0068109D01*
X0176313Y0068042D01*
X0176338Y0067975D01*
X0176359Y0067906D01*
X0176377Y0067836D01*
X0176390Y0067765D01*
X0176400Y0067693D01*
X0176406Y0067621D01*
X0176408Y0067549D01*
X0166549Y0068083D02*
X0163882Y0071016D01*
X0165482Y0069149D02*
X0163882Y0066216D01*
X0166549Y0066216D02*
X0166549Y0071016D01*
X0169015Y0074090D02*
X0169015Y0078090D01*
X0169013Y0078145D01*
X0169008Y0078199D01*
X0168998Y0078253D01*
X0168985Y0078306D01*
X0168969Y0078358D01*
X0168949Y0078409D01*
X0168925Y0078458D01*
X0168899Y0078506D01*
X0168869Y0078551D01*
X0168836Y0078595D01*
X0168800Y0078636D01*
X0168761Y0078675D01*
X0168720Y0078711D01*
X0168676Y0078744D01*
X0168631Y0078774D01*
X0168583Y0078800D01*
X0168534Y0078824D01*
X0168483Y0078844D01*
X0168431Y0078860D01*
X0168378Y0078873D01*
X0168324Y0078883D01*
X0168270Y0078888D01*
X0168215Y0078890D01*
X0167948Y0078890D01*
X0167948Y0077290D02*
X0169548Y0077290D01*
X0165778Y0076223D02*
X0165778Y0075157D01*
X0165779Y0075157D02*
X0165777Y0075093D01*
X0165771Y0075028D01*
X0165762Y0074965D01*
X0165748Y0074902D01*
X0165731Y0074840D01*
X0165710Y0074779D01*
X0165685Y0074719D01*
X0165657Y0074661D01*
X0165625Y0074605D01*
X0165590Y0074551D01*
X0165552Y0074499D01*
X0165511Y0074449D01*
X0165466Y0074403D01*
X0165420Y0074358D01*
X0165370Y0074317D01*
X0165318Y0074279D01*
X0165264Y0074244D01*
X0165208Y0074212D01*
X0165150Y0074184D01*
X0165090Y0074159D01*
X0165029Y0074138D01*
X0164967Y0074121D01*
X0164904Y0074107D01*
X0164841Y0074098D01*
X0164776Y0074092D01*
X0164712Y0074090D01*
X0164648Y0074092D01*
X0164583Y0074098D01*
X0164520Y0074107D01*
X0164457Y0074121D01*
X0164395Y0074138D01*
X0164334Y0074159D01*
X0164274Y0074184D01*
X0164216Y0074212D01*
X0164160Y0074244D01*
X0164106Y0074279D01*
X0164054Y0074317D01*
X0164004Y0074358D01*
X0163958Y0074403D01*
X0163913Y0074449D01*
X0163872Y0074499D01*
X0163834Y0074551D01*
X0163799Y0074605D01*
X0163767Y0074661D01*
X0163739Y0074719D01*
X0163714Y0074779D01*
X0163693Y0074840D01*
X0163676Y0074902D01*
X0163662Y0074965D01*
X0163653Y0075028D01*
X0163647Y0075093D01*
X0163645Y0075157D01*
X0163645Y0076223D01*
X0163647Y0076287D01*
X0163653Y0076352D01*
X0163662Y0076415D01*
X0163676Y0076478D01*
X0163693Y0076540D01*
X0163714Y0076601D01*
X0163739Y0076661D01*
X0163767Y0076719D01*
X0163799Y0076775D01*
X0163834Y0076829D01*
X0163872Y0076881D01*
X0163913Y0076931D01*
X0163958Y0076977D01*
X0164004Y0077022D01*
X0164054Y0077063D01*
X0164106Y0077101D01*
X0164160Y0077136D01*
X0164216Y0077168D01*
X0164274Y0077196D01*
X0164334Y0077221D01*
X0164395Y0077242D01*
X0164457Y0077259D01*
X0164520Y0077273D01*
X0164583Y0077282D01*
X0164648Y0077288D01*
X0164712Y0077290D01*
X0164776Y0077288D01*
X0164841Y0077282D01*
X0164904Y0077273D01*
X0164967Y0077259D01*
X0165029Y0077242D01*
X0165090Y0077221D01*
X0165150Y0077196D01*
X0165208Y0077168D01*
X0165264Y0077136D01*
X0165318Y0077101D01*
X0165370Y0077063D01*
X0165420Y0077022D01*
X0165466Y0076977D01*
X0165511Y0076931D01*
X0165552Y0076881D01*
X0165590Y0076829D01*
X0165625Y0076775D01*
X0165657Y0076719D01*
X0165685Y0076661D01*
X0165710Y0076601D01*
X0165731Y0076540D01*
X0165748Y0076478D01*
X0165762Y0076415D01*
X0165771Y0076352D01*
X0165777Y0076287D01*
X0165779Y0076223D01*
X0160152Y0077290D02*
X0160152Y0074090D01*
X0158552Y0076757D02*
X0158552Y0077290D01*
X0160152Y0077290D01*
X0160761Y0081964D02*
X0161028Y0081964D01*
X0161083Y0081966D01*
X0161137Y0081971D01*
X0161191Y0081981D01*
X0161244Y0081994D01*
X0161296Y0082010D01*
X0161347Y0082030D01*
X0161396Y0082054D01*
X0161444Y0082080D01*
X0161489Y0082110D01*
X0161533Y0082143D01*
X0161574Y0082179D01*
X0161613Y0082218D01*
X0161649Y0082259D01*
X0161682Y0082303D01*
X0161712Y0082348D01*
X0161738Y0082396D01*
X0161762Y0082445D01*
X0161782Y0082496D01*
X0161798Y0082548D01*
X0161811Y0082601D01*
X0161821Y0082655D01*
X0161826Y0082709D01*
X0161828Y0082764D01*
X0161828Y0086764D01*
X0162361Y0085164D02*
X0160761Y0085164D01*
X0157790Y0084098D02*
X0157790Y0082764D01*
X0157788Y0082709D01*
X0157783Y0082655D01*
X0157773Y0082601D01*
X0157760Y0082548D01*
X0157744Y0082496D01*
X0157724Y0082445D01*
X0157700Y0082396D01*
X0157674Y0082348D01*
X0157644Y0082303D01*
X0157611Y0082259D01*
X0157575Y0082218D01*
X0157536Y0082179D01*
X0157495Y0082143D01*
X0157451Y0082110D01*
X0157406Y0082080D01*
X0157358Y0082054D01*
X0157309Y0082030D01*
X0157258Y0082010D01*
X0157206Y0081994D01*
X0157153Y0081981D01*
X0157099Y0081971D01*
X0157045Y0081966D01*
X0156990Y0081964D01*
X0155657Y0081964D01*
X0155657Y0083564D02*
X0157790Y0083564D01*
X0157790Y0084098D02*
X0157788Y0084162D01*
X0157782Y0084227D01*
X0157773Y0084290D01*
X0157759Y0084353D01*
X0157742Y0084415D01*
X0157721Y0084476D01*
X0157696Y0084536D01*
X0157668Y0084594D01*
X0157636Y0084650D01*
X0157601Y0084704D01*
X0157563Y0084756D01*
X0157522Y0084806D01*
X0157477Y0084852D01*
X0157431Y0084897D01*
X0157381Y0084938D01*
X0157329Y0084976D01*
X0157275Y0085011D01*
X0157219Y0085043D01*
X0157161Y0085071D01*
X0157101Y0085096D01*
X0157040Y0085117D01*
X0156978Y0085134D01*
X0156915Y0085148D01*
X0156852Y0085157D01*
X0156787Y0085163D01*
X0156723Y0085165D01*
X0156659Y0085163D01*
X0156594Y0085157D01*
X0156531Y0085148D01*
X0156468Y0085134D01*
X0156406Y0085117D01*
X0156345Y0085096D01*
X0156285Y0085071D01*
X0156227Y0085043D01*
X0156171Y0085011D01*
X0156117Y0084976D01*
X0156065Y0084938D01*
X0156015Y0084897D01*
X0155969Y0084852D01*
X0155924Y0084806D01*
X0155883Y0084756D01*
X0155845Y0084704D01*
X0155810Y0084650D01*
X0155778Y0084594D01*
X0155750Y0084536D01*
X0155725Y0084476D01*
X0155704Y0084415D01*
X0155687Y0084353D01*
X0155673Y0084290D01*
X0155664Y0084227D01*
X0155658Y0084162D01*
X0155656Y0084098D01*
X0155657Y0084098D02*
X0155657Y0083564D01*
X0152164Y0081964D02*
X0152164Y0085164D01*
X0150564Y0085164D01*
X0150564Y0084631D01*
X0148431Y0085164D02*
X0146831Y0085164D01*
X0147898Y0085964D02*
X0147896Y0086019D01*
X0147891Y0086073D01*
X0147881Y0086127D01*
X0147868Y0086180D01*
X0147852Y0086232D01*
X0147832Y0086283D01*
X0147808Y0086332D01*
X0147782Y0086380D01*
X0147752Y0086425D01*
X0147719Y0086469D01*
X0147683Y0086510D01*
X0147644Y0086549D01*
X0147603Y0086585D01*
X0147559Y0086618D01*
X0147514Y0086648D01*
X0147466Y0086674D01*
X0147417Y0086698D01*
X0147366Y0086718D01*
X0147314Y0086734D01*
X0147261Y0086747D01*
X0147207Y0086757D01*
X0147153Y0086762D01*
X0147098Y0086764D01*
X0146831Y0086764D01*
X0147898Y0085964D02*
X0147898Y0081964D01*
X0143804Y0081964D02*
X0142604Y0081964D01*
X0142604Y0084364D01*
X0142604Y0083831D02*
X0143804Y0083831D01*
X0142604Y0084364D02*
X0142606Y0084419D01*
X0142611Y0084473D01*
X0142621Y0084527D01*
X0142634Y0084580D01*
X0142650Y0084632D01*
X0142670Y0084683D01*
X0142694Y0084732D01*
X0142720Y0084780D01*
X0142750Y0084825D01*
X0142783Y0084869D01*
X0142819Y0084910D01*
X0142858Y0084949D01*
X0142899Y0084985D01*
X0142943Y0085018D01*
X0142988Y0085048D01*
X0143036Y0085074D01*
X0143085Y0085098D01*
X0143136Y0085118D01*
X0143188Y0085134D01*
X0143241Y0085147D01*
X0143295Y0085157D01*
X0143349Y0085162D01*
X0143404Y0085164D01*
X0144470Y0085164D01*
X0139105Y0084364D02*
X0139105Y0082764D01*
X0139103Y0082709D01*
X0139098Y0082655D01*
X0139088Y0082601D01*
X0139075Y0082548D01*
X0139059Y0082496D01*
X0139039Y0082445D01*
X0139015Y0082396D01*
X0138989Y0082348D01*
X0138959Y0082303D01*
X0138926Y0082259D01*
X0138890Y0082218D01*
X0138851Y0082179D01*
X0138810Y0082143D01*
X0138766Y0082110D01*
X0138721Y0082080D01*
X0138673Y0082054D01*
X0138624Y0082030D01*
X0138573Y0082010D01*
X0138521Y0081994D01*
X0138468Y0081981D01*
X0138414Y0081971D01*
X0138360Y0081966D01*
X0138305Y0081964D01*
X0137238Y0081964D01*
X0139105Y0084364D02*
X0139103Y0084419D01*
X0139098Y0084473D01*
X0139088Y0084527D01*
X0139075Y0084580D01*
X0139059Y0084632D01*
X0139039Y0084683D01*
X0139015Y0084732D01*
X0138989Y0084780D01*
X0138959Y0084825D01*
X0138926Y0084869D01*
X0138890Y0084910D01*
X0138851Y0084949D01*
X0138810Y0084985D01*
X0138766Y0085018D01*
X0138721Y0085048D01*
X0138673Y0085074D01*
X0138624Y0085098D01*
X0138573Y0085118D01*
X0138521Y0085134D01*
X0138468Y0085147D01*
X0138414Y0085157D01*
X0138360Y0085162D01*
X0138305Y0085164D01*
X0137238Y0085164D01*
X0134405Y0084098D02*
X0134405Y0082764D01*
X0134405Y0083564D02*
X0132271Y0083564D01*
X0132271Y0084098D01*
X0132273Y0084162D01*
X0132279Y0084227D01*
X0132288Y0084290D01*
X0132302Y0084353D01*
X0132319Y0084415D01*
X0132340Y0084476D01*
X0132365Y0084536D01*
X0132393Y0084594D01*
X0132425Y0084650D01*
X0132460Y0084704D01*
X0132498Y0084756D01*
X0132539Y0084806D01*
X0132584Y0084852D01*
X0132630Y0084897D01*
X0132680Y0084938D01*
X0132732Y0084976D01*
X0132786Y0085011D01*
X0132842Y0085043D01*
X0132900Y0085071D01*
X0132960Y0085096D01*
X0133021Y0085117D01*
X0133083Y0085134D01*
X0133146Y0085148D01*
X0133209Y0085157D01*
X0133274Y0085163D01*
X0133338Y0085165D01*
X0133402Y0085163D01*
X0133467Y0085157D01*
X0133530Y0085148D01*
X0133593Y0085134D01*
X0133655Y0085117D01*
X0133716Y0085096D01*
X0133776Y0085071D01*
X0133834Y0085043D01*
X0133890Y0085011D01*
X0133944Y0084976D01*
X0133996Y0084938D01*
X0134046Y0084897D01*
X0134092Y0084852D01*
X0134137Y0084806D01*
X0134178Y0084756D01*
X0134216Y0084704D01*
X0134251Y0084650D01*
X0134283Y0084594D01*
X0134311Y0084536D01*
X0134336Y0084476D01*
X0134357Y0084415D01*
X0134374Y0084353D01*
X0134388Y0084290D01*
X0134397Y0084227D01*
X0134403Y0084162D01*
X0134405Y0084098D01*
X0134405Y0082764D02*
X0134403Y0082709D01*
X0134398Y0082655D01*
X0134388Y0082601D01*
X0134375Y0082548D01*
X0134359Y0082496D01*
X0134339Y0082445D01*
X0134315Y0082396D01*
X0134289Y0082348D01*
X0134259Y0082303D01*
X0134226Y0082259D01*
X0134190Y0082218D01*
X0134151Y0082179D01*
X0134110Y0082143D01*
X0134066Y0082110D01*
X0134021Y0082080D01*
X0133973Y0082054D01*
X0133924Y0082030D01*
X0133873Y0082010D01*
X0133821Y0081994D01*
X0133768Y0081981D01*
X0133714Y0081971D01*
X0133660Y0081966D01*
X0133605Y0081964D01*
X0132271Y0081964D01*
X0132670Y0077823D02*
X0134803Y0075157D01*
X0133736Y0074090D02*
X0133675Y0074092D01*
X0133614Y0074098D01*
X0133553Y0074107D01*
X0133494Y0074120D01*
X0133435Y0074137D01*
X0133377Y0074158D01*
X0133321Y0074182D01*
X0133266Y0074209D01*
X0133213Y0074240D01*
X0133162Y0074274D01*
X0133114Y0074311D01*
X0133067Y0074351D01*
X0133024Y0074394D01*
X0132983Y0074439D01*
X0132945Y0074487D01*
X0132910Y0074537D01*
X0132878Y0074590D01*
X0132849Y0074644D01*
X0132824Y0074700D01*
X0132802Y0074757D01*
X0133736Y0074090D02*
X0133797Y0074092D01*
X0133858Y0074098D01*
X0133919Y0074107D01*
X0133978Y0074120D01*
X0134037Y0074137D01*
X0134095Y0074158D01*
X0134151Y0074182D01*
X0134206Y0074209D01*
X0134259Y0074240D01*
X0134310Y0074274D01*
X0134358Y0074311D01*
X0134405Y0074351D01*
X0134448Y0074394D01*
X0134489Y0074439D01*
X0134527Y0074487D01*
X0134562Y0074537D01*
X0134594Y0074590D01*
X0134623Y0074644D01*
X0134648Y0074700D01*
X0134670Y0074757D01*
X0132403Y0076490D02*
X0132405Y0076610D01*
X0132410Y0076729D01*
X0132419Y0076848D01*
X0132432Y0076967D01*
X0132448Y0077086D01*
X0132468Y0077204D01*
X0132491Y0077321D01*
X0132518Y0077438D01*
X0132549Y0077553D01*
X0132583Y0077668D01*
X0132620Y0077782D01*
X0132661Y0077894D01*
X0132705Y0078005D01*
X0132752Y0078115D01*
X0132803Y0078224D01*
X0133736Y0078891D02*
X0133797Y0078889D01*
X0133858Y0078883D01*
X0133919Y0078874D01*
X0133978Y0078861D01*
X0134037Y0078844D01*
X0134095Y0078823D01*
X0134151Y0078799D01*
X0134206Y0078772D01*
X0134259Y0078741D01*
X0134310Y0078707D01*
X0134358Y0078670D01*
X0134405Y0078630D01*
X0134448Y0078587D01*
X0134489Y0078542D01*
X0134527Y0078494D01*
X0134562Y0078444D01*
X0134594Y0078391D01*
X0134623Y0078337D01*
X0134648Y0078281D01*
X0134670Y0078224D01*
X0133736Y0078890D02*
X0133675Y0078888D01*
X0133614Y0078882D01*
X0133553Y0078873D01*
X0133494Y0078860D01*
X0133435Y0078843D01*
X0133377Y0078822D01*
X0133321Y0078798D01*
X0133266Y0078771D01*
X0133213Y0078740D01*
X0133162Y0078706D01*
X0133114Y0078669D01*
X0133067Y0078629D01*
X0133024Y0078586D01*
X0132983Y0078541D01*
X0132945Y0078493D01*
X0132910Y0078443D01*
X0132878Y0078390D01*
X0132849Y0078336D01*
X0132824Y0078280D01*
X0132802Y0078223D01*
X0134670Y0078224D02*
X0134721Y0078115D01*
X0134768Y0078005D01*
X0134812Y0077894D01*
X0134853Y0077782D01*
X0134890Y0077668D01*
X0134924Y0077553D01*
X0134955Y0077438D01*
X0134982Y0077321D01*
X0135005Y0077204D01*
X0135025Y0077086D01*
X0135041Y0076967D01*
X0135054Y0076848D01*
X0135063Y0076729D01*
X0135068Y0076610D01*
X0135070Y0076490D01*
X0132403Y0076490D02*
X0132405Y0076370D01*
X0132410Y0076251D01*
X0132419Y0076132D01*
X0132432Y0076013D01*
X0132448Y0075894D01*
X0132468Y0075776D01*
X0132491Y0075659D01*
X0132518Y0075542D01*
X0132549Y0075427D01*
X0132583Y0075312D01*
X0132620Y0075198D01*
X0132661Y0075086D01*
X0132705Y0074975D01*
X0132752Y0074865D01*
X0132803Y0074756D01*
X0134670Y0074756D02*
X0134721Y0074865D01*
X0134768Y0074975D01*
X0134812Y0075086D01*
X0134853Y0075198D01*
X0134890Y0075312D01*
X0134924Y0075427D01*
X0134955Y0075542D01*
X0134982Y0075659D01*
X0135005Y0075776D01*
X0135025Y0075894D01*
X0135041Y0076013D01*
X0135054Y0076132D01*
X0135063Y0076251D01*
X0135068Y0076370D01*
X0135070Y0076490D01*
X0138957Y0076757D02*
X0141224Y0074090D01*
X0138557Y0074090D01*
X0144260Y0074090D02*
X0145326Y0074090D01*
X0145390Y0074092D01*
X0145455Y0074098D01*
X0145518Y0074107D01*
X0145581Y0074121D01*
X0145643Y0074138D01*
X0145704Y0074159D01*
X0145764Y0074184D01*
X0145822Y0074212D01*
X0145878Y0074244D01*
X0145932Y0074279D01*
X0145984Y0074317D01*
X0146034Y0074358D01*
X0146080Y0074403D01*
X0146125Y0074449D01*
X0146166Y0074499D01*
X0146204Y0074551D01*
X0146239Y0074605D01*
X0146271Y0074661D01*
X0146299Y0074719D01*
X0146324Y0074779D01*
X0146345Y0074840D01*
X0146362Y0074902D01*
X0146376Y0074965D01*
X0146385Y0075028D01*
X0146391Y0075093D01*
X0146393Y0075157D01*
X0146393Y0077823D01*
X0146391Y0077887D01*
X0146385Y0077952D01*
X0146376Y0078015D01*
X0146362Y0078078D01*
X0146345Y0078140D01*
X0146324Y0078201D01*
X0146299Y0078261D01*
X0146271Y0078319D01*
X0146239Y0078375D01*
X0146204Y0078429D01*
X0146166Y0078481D01*
X0146125Y0078531D01*
X0146080Y0078577D01*
X0146034Y0078622D01*
X0145984Y0078663D01*
X0145932Y0078701D01*
X0145878Y0078736D01*
X0145822Y0078768D01*
X0145764Y0078796D01*
X0145704Y0078821D01*
X0145643Y0078842D01*
X0145581Y0078859D01*
X0145518Y0078873D01*
X0145455Y0078882D01*
X0145390Y0078888D01*
X0145326Y0078890D01*
X0144260Y0078890D01*
X0138957Y0076757D02*
X0138908Y0076806D01*
X0138862Y0076858D01*
X0138818Y0076912D01*
X0138778Y0076969D01*
X0138740Y0077027D01*
X0138706Y0077088D01*
X0138675Y0077150D01*
X0138648Y0077214D01*
X0138624Y0077280D01*
X0138604Y0077346D01*
X0138587Y0077414D01*
X0138574Y0077482D01*
X0138565Y0077551D01*
X0138559Y0077620D01*
X0138557Y0077690D01*
X0138559Y0077757D01*
X0138565Y0077824D01*
X0138574Y0077891D01*
X0138587Y0077957D01*
X0138604Y0078022D01*
X0138624Y0078086D01*
X0138648Y0078149D01*
X0138676Y0078211D01*
X0138707Y0078270D01*
X0138741Y0078328D01*
X0138778Y0078384D01*
X0138819Y0078438D01*
X0138862Y0078490D01*
X0138908Y0078539D01*
X0138957Y0078585D01*
X0139009Y0078628D01*
X0139063Y0078669D01*
X0139119Y0078706D01*
X0139177Y0078740D01*
X0139236Y0078771D01*
X0139298Y0078799D01*
X0139361Y0078823D01*
X0139425Y0078843D01*
X0139490Y0078860D01*
X0139556Y0078873D01*
X0139623Y0078882D01*
X0139690Y0078888D01*
X0139757Y0078890D01*
X0139835Y0078888D01*
X0139912Y0078882D01*
X0139989Y0078872D01*
X0140065Y0078859D01*
X0140141Y0078841D01*
X0140215Y0078820D01*
X0140289Y0078795D01*
X0140361Y0078767D01*
X0140432Y0078735D01*
X0140500Y0078699D01*
X0140567Y0078660D01*
X0140632Y0078617D01*
X0140695Y0078572D01*
X0140755Y0078523D01*
X0140813Y0078471D01*
X0140868Y0078417D01*
X0140921Y0078360D01*
X0140970Y0078300D01*
X0141016Y0078238D01*
X0141060Y0078173D01*
X0141099Y0078107D01*
X0141136Y0078038D01*
X0141169Y0077968D01*
X0141198Y0077896D01*
X0141224Y0077823D01*
X0143804Y0081965D02*
X0143864Y0081967D01*
X0143923Y0081973D01*
X0143982Y0081982D01*
X0144041Y0081996D01*
X0144098Y0082013D01*
X0144154Y0082033D01*
X0144209Y0082057D01*
X0144262Y0082085D01*
X0144313Y0082116D01*
X0144362Y0082150D01*
X0144409Y0082188D01*
X0144453Y0082228D01*
X0144495Y0082271D01*
X0144533Y0082316D01*
X0144569Y0082364D01*
X0144602Y0082414D01*
X0144631Y0082466D01*
X0144657Y0082520D01*
X0144680Y0082576D01*
X0144698Y0082633D01*
X0144714Y0082690D01*
X0144725Y0082749D01*
X0144733Y0082808D01*
X0144737Y0082868D01*
X0144737Y0082928D01*
X0144733Y0082988D01*
X0144725Y0083047D01*
X0144714Y0083106D01*
X0144698Y0083163D01*
X0144680Y0083220D01*
X0144657Y0083276D01*
X0144631Y0083330D01*
X0144602Y0083382D01*
X0144569Y0083432D01*
X0144533Y0083480D01*
X0144495Y0083525D01*
X0144453Y0083568D01*
X0144409Y0083608D01*
X0144362Y0083646D01*
X0144313Y0083680D01*
X0144262Y0083711D01*
X0144209Y0083739D01*
X0144154Y0083763D01*
X0144098Y0083783D01*
X0144041Y0083800D01*
X0143982Y0083814D01*
X0143923Y0083823D01*
X0143864Y0083829D01*
X0143804Y0083831D01*
X0151078Y0078890D02*
X0152411Y0078890D01*
X0152411Y0074090D01*
X0152411Y0076223D02*
X0151078Y0076223D01*
X0150811Y0076223D02*
X0149745Y0074090D01*
X0151078Y0076224D02*
X0151006Y0076226D01*
X0150934Y0076232D01*
X0150862Y0076242D01*
X0150791Y0076255D01*
X0150721Y0076273D01*
X0150652Y0076294D01*
X0150585Y0076319D01*
X0150518Y0076347D01*
X0150454Y0076379D01*
X0150391Y0076415D01*
X0150330Y0076454D01*
X0150271Y0076496D01*
X0150215Y0076541D01*
X0150161Y0076589D01*
X0150110Y0076640D01*
X0150062Y0076694D01*
X0150017Y0076750D01*
X0149975Y0076809D01*
X0149936Y0076870D01*
X0149900Y0076933D01*
X0149868Y0076997D01*
X0149840Y0077064D01*
X0149815Y0077131D01*
X0149794Y0077200D01*
X0149776Y0077270D01*
X0149763Y0077341D01*
X0149753Y0077413D01*
X0149747Y0077485D01*
X0149745Y0077557D01*
X0149747Y0077629D01*
X0149753Y0077701D01*
X0149763Y0077773D01*
X0149776Y0077844D01*
X0149794Y0077914D01*
X0149815Y0077983D01*
X0149840Y0078050D01*
X0149868Y0078117D01*
X0149900Y0078181D01*
X0149936Y0078244D01*
X0149975Y0078305D01*
X0150017Y0078364D01*
X0150062Y0078420D01*
X0150110Y0078474D01*
X0150161Y0078525D01*
X0150215Y0078573D01*
X0150271Y0078618D01*
X0150330Y0078660D01*
X0150391Y0078699D01*
X0150454Y0078735D01*
X0150518Y0078767D01*
X0150585Y0078795D01*
X0150652Y0078820D01*
X0150721Y0078841D01*
X0150791Y0078859D01*
X0150862Y0078872D01*
X0150934Y0078882D01*
X0151006Y0078888D01*
X0151078Y0078890D01*
X0153325Y0069416D02*
X0153325Y0068883D01*
X0153325Y0069416D02*
X0154925Y0069416D01*
X0154925Y0066216D01*
X0158623Y0066216D02*
X0158623Y0069416D01*
X0160756Y0069416D02*
X0160756Y0067016D01*
X0160754Y0066961D01*
X0160749Y0066907D01*
X0160739Y0066853D01*
X0160726Y0066800D01*
X0160710Y0066748D01*
X0160690Y0066697D01*
X0160666Y0066648D01*
X0160640Y0066600D01*
X0160610Y0066555D01*
X0160577Y0066511D01*
X0160541Y0066470D01*
X0160502Y0066431D01*
X0160461Y0066395D01*
X0160417Y0066362D01*
X0160372Y0066332D01*
X0160324Y0066306D01*
X0160275Y0066282D01*
X0160224Y0066262D01*
X0160172Y0066246D01*
X0160119Y0066233D01*
X0160065Y0066223D01*
X0160011Y0066218D01*
X0159956Y0066216D01*
X0158623Y0066216D01*
X0150910Y0067283D02*
X0150910Y0068349D01*
X0150908Y0068413D01*
X0150902Y0068478D01*
X0150893Y0068541D01*
X0150879Y0068604D01*
X0150862Y0068666D01*
X0150841Y0068727D01*
X0150816Y0068787D01*
X0150788Y0068845D01*
X0150756Y0068901D01*
X0150721Y0068955D01*
X0150683Y0069007D01*
X0150642Y0069057D01*
X0150597Y0069103D01*
X0150551Y0069148D01*
X0150501Y0069189D01*
X0150449Y0069227D01*
X0150395Y0069262D01*
X0150339Y0069294D01*
X0150281Y0069322D01*
X0150221Y0069347D01*
X0150160Y0069368D01*
X0150098Y0069385D01*
X0150035Y0069399D01*
X0149972Y0069408D01*
X0149907Y0069414D01*
X0149843Y0069416D01*
X0149779Y0069414D01*
X0149714Y0069408D01*
X0149651Y0069399D01*
X0149588Y0069385D01*
X0149526Y0069368D01*
X0149465Y0069347D01*
X0149405Y0069322D01*
X0149347Y0069294D01*
X0149291Y0069262D01*
X0149237Y0069227D01*
X0149185Y0069189D01*
X0149135Y0069148D01*
X0149089Y0069103D01*
X0149044Y0069057D01*
X0149003Y0069007D01*
X0148965Y0068955D01*
X0148930Y0068901D01*
X0148898Y0068845D01*
X0148870Y0068787D01*
X0148845Y0068727D01*
X0148824Y0068666D01*
X0148807Y0068604D01*
X0148793Y0068541D01*
X0148784Y0068478D01*
X0148778Y0068413D01*
X0148776Y0068349D01*
X0148777Y0068349D02*
X0148777Y0067283D01*
X0148776Y0067283D02*
X0148778Y0067219D01*
X0148784Y0067154D01*
X0148793Y0067091D01*
X0148807Y0067028D01*
X0148824Y0066966D01*
X0148845Y0066905D01*
X0148870Y0066845D01*
X0148898Y0066787D01*
X0148930Y0066731D01*
X0148965Y0066677D01*
X0149003Y0066625D01*
X0149044Y0066575D01*
X0149089Y0066529D01*
X0149135Y0066484D01*
X0149185Y0066443D01*
X0149237Y0066405D01*
X0149291Y0066370D01*
X0149347Y0066338D01*
X0149405Y0066310D01*
X0149465Y0066285D01*
X0149526Y0066264D01*
X0149588Y0066247D01*
X0149651Y0066233D01*
X0149714Y0066224D01*
X0149779Y0066218D01*
X0149843Y0066216D01*
X0149907Y0066218D01*
X0149972Y0066224D01*
X0150035Y0066233D01*
X0150098Y0066247D01*
X0150160Y0066264D01*
X0150221Y0066285D01*
X0150281Y0066310D01*
X0150339Y0066338D01*
X0150395Y0066370D01*
X0150449Y0066405D01*
X0150501Y0066443D01*
X0150551Y0066484D01*
X0150597Y0066529D01*
X0150642Y0066575D01*
X0150683Y0066625D01*
X0150721Y0066677D01*
X0150756Y0066731D01*
X0150788Y0066787D01*
X0150816Y0066845D01*
X0150841Y0066905D01*
X0150862Y0066966D01*
X0150879Y0067028D01*
X0150893Y0067091D01*
X0150902Y0067154D01*
X0150908Y0067219D01*
X0150910Y0067283D01*
X0145197Y0067816D02*
X0143064Y0069416D01*
X0144264Y0068483D02*
X0143064Y0066216D01*
X0145197Y0066216D02*
X0145197Y0071016D01*
X0140746Y0071016D02*
X0140479Y0071016D01*
X0140479Y0070749D01*
X0140746Y0070749D01*
X0140746Y0071016D01*
X0140612Y0069416D02*
X0140612Y0066216D01*
X0134622Y0066216D02*
X0133022Y0071016D01*
X0131422Y0066216D01*
X0131822Y0067416D02*
X0134222Y0067416D01*
X0128434Y0067016D02*
X0128434Y0071016D01*
X0128916Y0074090D02*
X0126249Y0074090D01*
X0127582Y0074090D02*
X0127582Y0078890D01*
X0128916Y0077823D01*
X0128434Y0067016D02*
X0128432Y0066961D01*
X0128427Y0066907D01*
X0128417Y0066853D01*
X0128404Y0066800D01*
X0128388Y0066748D01*
X0128368Y0066697D01*
X0128344Y0066648D01*
X0128318Y0066600D01*
X0128288Y0066555D01*
X0128255Y0066511D01*
X0128219Y0066470D01*
X0128180Y0066431D01*
X0128139Y0066395D01*
X0128095Y0066362D01*
X0128050Y0066332D01*
X0128002Y0066306D01*
X0127953Y0066282D01*
X0127902Y0066262D01*
X0127850Y0066246D01*
X0127797Y0066233D01*
X0127743Y0066223D01*
X0127689Y0066218D01*
X0127634Y0066216D01*
X0122317Y0060475D02*
X0122317Y0059409D01*
X0122318Y0059409D02*
X0122316Y0059345D01*
X0122310Y0059280D01*
X0122301Y0059217D01*
X0122287Y0059154D01*
X0122270Y0059092D01*
X0122249Y0059031D01*
X0122224Y0058971D01*
X0122196Y0058913D01*
X0122164Y0058857D01*
X0122129Y0058803D01*
X0122091Y0058751D01*
X0122050Y0058701D01*
X0122005Y0058655D01*
X0121959Y0058610D01*
X0121909Y0058569D01*
X0121857Y0058531D01*
X0121803Y0058496D01*
X0121747Y0058464D01*
X0121689Y0058436D01*
X0121629Y0058411D01*
X0121568Y0058390D01*
X0121506Y0058373D01*
X0121443Y0058359D01*
X0121380Y0058350D01*
X0121315Y0058344D01*
X0121251Y0058342D01*
X0121187Y0058344D01*
X0121122Y0058350D01*
X0121059Y0058359D01*
X0120996Y0058373D01*
X0120934Y0058390D01*
X0120873Y0058411D01*
X0120813Y0058436D01*
X0120755Y0058464D01*
X0120699Y0058496D01*
X0120645Y0058531D01*
X0120593Y0058569D01*
X0120543Y0058610D01*
X0120497Y0058655D01*
X0120452Y0058701D01*
X0120411Y0058751D01*
X0120373Y0058803D01*
X0120338Y0058857D01*
X0120306Y0058913D01*
X0120278Y0058971D01*
X0120253Y0059031D01*
X0120232Y0059092D01*
X0120215Y0059154D01*
X0120201Y0059217D01*
X0120192Y0059280D01*
X0120186Y0059345D01*
X0120184Y0059409D01*
X0120184Y0060475D01*
X0120186Y0060539D01*
X0120192Y0060604D01*
X0120201Y0060667D01*
X0120215Y0060730D01*
X0120232Y0060792D01*
X0120253Y0060853D01*
X0120278Y0060913D01*
X0120306Y0060971D01*
X0120338Y0061027D01*
X0120373Y0061081D01*
X0120411Y0061133D01*
X0120452Y0061183D01*
X0120497Y0061229D01*
X0120543Y0061274D01*
X0120593Y0061315D01*
X0120645Y0061353D01*
X0120699Y0061388D01*
X0120755Y0061420D01*
X0120813Y0061448D01*
X0120873Y0061473D01*
X0120934Y0061494D01*
X0120996Y0061511D01*
X0121059Y0061525D01*
X0121122Y0061534D01*
X0121187Y0061540D01*
X0121251Y0061542D01*
X0121315Y0061540D01*
X0121380Y0061534D01*
X0121443Y0061525D01*
X0121506Y0061511D01*
X0121568Y0061494D01*
X0121629Y0061473D01*
X0121689Y0061448D01*
X0121747Y0061420D01*
X0121803Y0061388D01*
X0121857Y0061353D01*
X0121909Y0061315D01*
X0121959Y0061274D01*
X0122005Y0061229D01*
X0122050Y0061183D01*
X0122091Y0061133D01*
X0122129Y0061081D01*
X0122164Y0061027D01*
X0122196Y0060971D01*
X0122224Y0060913D01*
X0122249Y0060853D01*
X0122270Y0060792D01*
X0122287Y0060730D01*
X0122301Y0060667D01*
X0122310Y0060604D01*
X0122316Y0060539D01*
X0122318Y0060475D01*
X0117486Y0058609D02*
X0117220Y0058609D01*
X0117220Y0058342D01*
X0117486Y0058342D01*
X0117486Y0058609D01*
X0135029Y0058342D02*
X0136229Y0058342D01*
X0136289Y0058344D01*
X0136348Y0058350D01*
X0136407Y0058359D01*
X0136466Y0058373D01*
X0136523Y0058390D01*
X0136579Y0058410D01*
X0136634Y0058434D01*
X0136687Y0058462D01*
X0136738Y0058493D01*
X0136787Y0058527D01*
X0136834Y0058565D01*
X0136878Y0058605D01*
X0136920Y0058648D01*
X0136958Y0058693D01*
X0136994Y0058741D01*
X0137027Y0058791D01*
X0137056Y0058843D01*
X0137082Y0058897D01*
X0137105Y0058953D01*
X0137123Y0059010D01*
X0137139Y0059067D01*
X0137150Y0059126D01*
X0137158Y0059185D01*
X0137162Y0059245D01*
X0137162Y0059305D01*
X0137158Y0059365D01*
X0137150Y0059424D01*
X0137139Y0059483D01*
X0137123Y0059540D01*
X0137105Y0059597D01*
X0137082Y0059653D01*
X0137056Y0059707D01*
X0137027Y0059759D01*
X0136994Y0059809D01*
X0136958Y0059857D01*
X0136920Y0059902D01*
X0136878Y0059945D01*
X0136834Y0059985D01*
X0136787Y0060023D01*
X0136738Y0060057D01*
X0136687Y0060088D01*
X0136634Y0060116D01*
X0136579Y0060140D01*
X0136523Y0060160D01*
X0136466Y0060177D01*
X0136407Y0060191D01*
X0136348Y0060200D01*
X0136289Y0060206D01*
X0136229Y0060208D01*
X0140779Y0060742D02*
X0140781Y0060797D01*
X0140786Y0060851D01*
X0140796Y0060905D01*
X0140809Y0060958D01*
X0140825Y0061010D01*
X0140845Y0061061D01*
X0140869Y0061110D01*
X0140895Y0061158D01*
X0140925Y0061203D01*
X0140958Y0061247D01*
X0140994Y0061288D01*
X0141033Y0061327D01*
X0141074Y0061363D01*
X0141118Y0061396D01*
X0141163Y0061426D01*
X0141211Y0061452D01*
X0141260Y0061476D01*
X0141311Y0061496D01*
X0141363Y0061512D01*
X0141416Y0061525D01*
X0141470Y0061535D01*
X0141524Y0061540D01*
X0141579Y0061542D01*
X0155990Y0058609D02*
X0155990Y0058342D01*
X0156257Y0058342D01*
X0156257Y0058609D01*
X0155990Y0058609D01*
X0188196Y0058742D02*
X0188463Y0058742D01*
X0188463Y0059009D01*
X0188196Y0059009D01*
X0188196Y0058742D01*
X0188196Y0060875D02*
X0188463Y0060875D01*
X0188463Y0061142D01*
X0188196Y0061142D01*
X0188196Y0060875D01*
X0191290Y0060742D02*
X0191290Y0059142D01*
X0191292Y0059087D01*
X0191297Y0059033D01*
X0191307Y0058979D01*
X0191320Y0058926D01*
X0191336Y0058874D01*
X0191356Y0058823D01*
X0191380Y0058774D01*
X0191406Y0058726D01*
X0191436Y0058681D01*
X0191469Y0058637D01*
X0191505Y0058596D01*
X0191544Y0058557D01*
X0191585Y0058521D01*
X0191629Y0058488D01*
X0191674Y0058458D01*
X0191722Y0058432D01*
X0191771Y0058408D01*
X0191822Y0058388D01*
X0191874Y0058372D01*
X0191927Y0058359D01*
X0191981Y0058349D01*
X0192035Y0058344D01*
X0192090Y0058342D01*
X0193423Y0058342D01*
X0193423Y0056742D02*
X0193423Y0061542D01*
X0192090Y0061542D01*
X0192035Y0061540D01*
X0191981Y0061535D01*
X0191927Y0061525D01*
X0191874Y0061512D01*
X0191822Y0061496D01*
X0191771Y0061476D01*
X0191722Y0061452D01*
X0191674Y0061426D01*
X0191629Y0061396D01*
X0191585Y0061363D01*
X0191544Y0061327D01*
X0191505Y0061288D01*
X0191469Y0061247D01*
X0191436Y0061203D01*
X0191406Y0061158D01*
X0191380Y0061110D01*
X0191356Y0061061D01*
X0191336Y0061010D01*
X0191320Y0060958D01*
X0191307Y0060905D01*
X0191297Y0060851D01*
X0191292Y0060797D01*
X0191290Y0060742D01*
X0196675Y0061542D02*
X0198275Y0061542D01*
X0197742Y0063142D02*
X0197742Y0059142D01*
X0197740Y0059087D01*
X0197735Y0059033D01*
X0197725Y0058979D01*
X0197712Y0058926D01*
X0197696Y0058874D01*
X0197676Y0058823D01*
X0197652Y0058774D01*
X0197626Y0058726D01*
X0197596Y0058681D01*
X0197563Y0058637D01*
X0197527Y0058596D01*
X0197488Y0058557D01*
X0197447Y0058521D01*
X0197403Y0058488D01*
X0197358Y0058458D01*
X0197310Y0058432D01*
X0197261Y0058408D01*
X0197210Y0058388D01*
X0197158Y0058372D01*
X0197105Y0058359D01*
X0197051Y0058349D01*
X0196997Y0058344D01*
X0196942Y0058342D01*
X0196675Y0058342D01*
X0200573Y0058342D02*
X0200840Y0058342D01*
X0200895Y0058344D01*
X0200949Y0058349D01*
X0201003Y0058359D01*
X0201056Y0058372D01*
X0201108Y0058388D01*
X0201159Y0058408D01*
X0201208Y0058432D01*
X0201256Y0058458D01*
X0201301Y0058488D01*
X0201345Y0058521D01*
X0201386Y0058557D01*
X0201425Y0058596D01*
X0201461Y0058637D01*
X0201494Y0058681D01*
X0201524Y0058726D01*
X0201550Y0058774D01*
X0201574Y0058823D01*
X0201594Y0058874D01*
X0201610Y0058926D01*
X0201623Y0058979D01*
X0201633Y0059033D01*
X0201638Y0059087D01*
X0201640Y0059142D01*
X0201640Y0063142D01*
X0202173Y0061542D02*
X0200573Y0061542D01*
X0204904Y0060742D02*
X0204904Y0058342D01*
X0207038Y0058342D02*
X0207038Y0063142D01*
X0207038Y0061542D02*
X0205704Y0061542D01*
X0205649Y0061540D01*
X0205595Y0061535D01*
X0205541Y0061525D01*
X0205488Y0061512D01*
X0205436Y0061496D01*
X0205385Y0061476D01*
X0205336Y0061452D01*
X0205288Y0061426D01*
X0205243Y0061396D01*
X0205199Y0061363D01*
X0205158Y0061327D01*
X0205119Y0061288D01*
X0205083Y0061247D01*
X0205050Y0061203D01*
X0205020Y0061158D01*
X0204994Y0061110D01*
X0204970Y0061061D01*
X0204950Y0061010D01*
X0204934Y0060958D01*
X0204921Y0060905D01*
X0204911Y0060851D01*
X0204906Y0060797D01*
X0204904Y0060742D01*
X0205086Y0066216D02*
X0206152Y0066216D01*
X0206216Y0066218D01*
X0206281Y0066224D01*
X0206344Y0066233D01*
X0206407Y0066247D01*
X0206469Y0066264D01*
X0206530Y0066285D01*
X0206590Y0066310D01*
X0206648Y0066338D01*
X0206704Y0066370D01*
X0206758Y0066405D01*
X0206810Y0066443D01*
X0206860Y0066484D01*
X0206906Y0066529D01*
X0206951Y0066575D01*
X0206992Y0066625D01*
X0207030Y0066677D01*
X0207065Y0066731D01*
X0207097Y0066787D01*
X0207125Y0066845D01*
X0207150Y0066905D01*
X0207171Y0066966D01*
X0207188Y0067028D01*
X0207202Y0067091D01*
X0207211Y0067154D01*
X0207217Y0067219D01*
X0207219Y0067283D01*
X0207219Y0069949D01*
X0207217Y0070013D01*
X0207211Y0070078D01*
X0207202Y0070141D01*
X0207188Y0070204D01*
X0207171Y0070266D01*
X0207150Y0070327D01*
X0207125Y0070387D01*
X0207097Y0070445D01*
X0207065Y0070501D01*
X0207030Y0070555D01*
X0206992Y0070607D01*
X0206951Y0070657D01*
X0206906Y0070703D01*
X0206860Y0070748D01*
X0206810Y0070789D01*
X0206758Y0070827D01*
X0206704Y0070862D01*
X0206648Y0070894D01*
X0206590Y0070922D01*
X0206530Y0070947D01*
X0206469Y0070968D01*
X0206407Y0070985D01*
X0206344Y0070999D01*
X0206281Y0071008D01*
X0206216Y0071014D01*
X0206152Y0071016D01*
X0205086Y0071016D01*
X0202519Y0071550D02*
X0202435Y0071447D01*
X0202354Y0071341D01*
X0202277Y0071234D01*
X0202202Y0071124D01*
X0202131Y0071012D01*
X0202063Y0070898D01*
X0201998Y0070782D01*
X0201937Y0070664D01*
X0201879Y0070545D01*
X0201825Y0070423D01*
X0201774Y0070301D01*
X0201727Y0070177D01*
X0201683Y0070051D01*
X0201644Y0069925D01*
X0201607Y0069797D01*
X0201575Y0069668D01*
X0201546Y0069539D01*
X0201521Y0069408D01*
X0201500Y0069277D01*
X0201483Y0069146D01*
X0201469Y0069014D01*
X0201460Y0068881D01*
X0201454Y0068749D01*
X0201452Y0068616D01*
X0201454Y0068483D01*
X0201460Y0068351D01*
X0201469Y0068218D01*
X0201483Y0068086D01*
X0201500Y0067955D01*
X0201521Y0067824D01*
X0201546Y0067693D01*
X0201575Y0067564D01*
X0201607Y0067435D01*
X0201644Y0067307D01*
X0201683Y0067181D01*
X0201727Y0067055D01*
X0201774Y0066931D01*
X0201825Y0066809D01*
X0201879Y0066687D01*
X0201937Y0066568D01*
X0201998Y0066450D01*
X0202063Y0066334D01*
X0202131Y0066220D01*
X0202202Y0066108D01*
X0202277Y0065998D01*
X0202354Y0065891D01*
X0202435Y0065785D01*
X0202519Y0065682D01*
X0210197Y0065682D02*
X0210281Y0065785D01*
X0210362Y0065891D01*
X0210439Y0065998D01*
X0210514Y0066108D01*
X0210585Y0066220D01*
X0210653Y0066334D01*
X0210718Y0066450D01*
X0210779Y0066568D01*
X0210837Y0066687D01*
X0210891Y0066809D01*
X0210942Y0066931D01*
X0210989Y0067055D01*
X0211033Y0067181D01*
X0211072Y0067307D01*
X0211109Y0067435D01*
X0211141Y0067564D01*
X0211170Y0067693D01*
X0211195Y0067824D01*
X0211216Y0067955D01*
X0211233Y0068086D01*
X0211247Y0068218D01*
X0211256Y0068351D01*
X0211262Y0068483D01*
X0211264Y0068616D01*
X0211262Y0068749D01*
X0211256Y0068881D01*
X0211247Y0069014D01*
X0211233Y0069146D01*
X0211216Y0069277D01*
X0211195Y0069408D01*
X0211170Y0069539D01*
X0211141Y0069668D01*
X0211109Y0069797D01*
X0211072Y0069925D01*
X0211033Y0070051D01*
X0210989Y0070177D01*
X0210942Y0070301D01*
X0210891Y0070423D01*
X0210837Y0070545D01*
X0210779Y0070664D01*
X0210718Y0070782D01*
X0210653Y0070898D01*
X0210585Y0071012D01*
X0210514Y0071124D01*
X0210439Y0071234D01*
X0210362Y0071341D01*
X0210281Y0071447D01*
X0210197Y0071550D01*
X0212713Y0074090D02*
X0214046Y0074090D01*
X0214046Y0078890D01*
X0212713Y0078890D01*
X0212641Y0078888D01*
X0212569Y0078882D01*
X0212497Y0078872D01*
X0212426Y0078859D01*
X0212356Y0078841D01*
X0212287Y0078820D01*
X0212220Y0078795D01*
X0212153Y0078767D01*
X0212089Y0078735D01*
X0212026Y0078699D01*
X0211965Y0078660D01*
X0211906Y0078618D01*
X0211850Y0078573D01*
X0211796Y0078525D01*
X0211745Y0078474D01*
X0211697Y0078420D01*
X0211652Y0078364D01*
X0211610Y0078305D01*
X0211571Y0078244D01*
X0211535Y0078181D01*
X0211503Y0078117D01*
X0211475Y0078050D01*
X0211450Y0077983D01*
X0211429Y0077914D01*
X0211411Y0077844D01*
X0211398Y0077773D01*
X0211388Y0077701D01*
X0211382Y0077629D01*
X0211380Y0077557D01*
X0211380Y0075423D01*
X0211382Y0075351D01*
X0211388Y0075279D01*
X0211398Y0075207D01*
X0211411Y0075136D01*
X0211429Y0075066D01*
X0211450Y0074997D01*
X0211475Y0074930D01*
X0211503Y0074863D01*
X0211535Y0074799D01*
X0211571Y0074736D01*
X0211610Y0074675D01*
X0211652Y0074616D01*
X0211697Y0074560D01*
X0211745Y0074506D01*
X0211796Y0074455D01*
X0211850Y0074407D01*
X0211906Y0074362D01*
X0211965Y0074320D01*
X0212026Y0074281D01*
X0212089Y0074245D01*
X0212153Y0074213D01*
X0212220Y0074185D01*
X0212287Y0074160D01*
X0212356Y0074139D01*
X0212426Y0074121D01*
X0212497Y0074108D01*
X0212569Y0074098D01*
X0212641Y0074092D01*
X0212713Y0074090D01*
X0207831Y0074890D02*
X0207831Y0076223D01*
X0207831Y0075690D02*
X0205697Y0075690D01*
X0205697Y0076223D01*
X0205699Y0076287D01*
X0205705Y0076352D01*
X0205714Y0076415D01*
X0205728Y0076478D01*
X0205745Y0076540D01*
X0205766Y0076601D01*
X0205791Y0076661D01*
X0205819Y0076719D01*
X0205851Y0076775D01*
X0205886Y0076829D01*
X0205924Y0076881D01*
X0205965Y0076931D01*
X0206010Y0076977D01*
X0206056Y0077022D01*
X0206106Y0077063D01*
X0206158Y0077101D01*
X0206212Y0077136D01*
X0206268Y0077168D01*
X0206326Y0077196D01*
X0206386Y0077221D01*
X0206447Y0077242D01*
X0206509Y0077259D01*
X0206572Y0077273D01*
X0206635Y0077282D01*
X0206700Y0077288D01*
X0206764Y0077290D01*
X0206828Y0077288D01*
X0206893Y0077282D01*
X0206956Y0077273D01*
X0207019Y0077259D01*
X0207081Y0077242D01*
X0207142Y0077221D01*
X0207202Y0077196D01*
X0207260Y0077168D01*
X0207316Y0077136D01*
X0207370Y0077101D01*
X0207422Y0077063D01*
X0207472Y0077022D01*
X0207518Y0076977D01*
X0207563Y0076931D01*
X0207604Y0076881D01*
X0207642Y0076829D01*
X0207677Y0076775D01*
X0207709Y0076719D01*
X0207737Y0076661D01*
X0207762Y0076601D01*
X0207783Y0076540D01*
X0207800Y0076478D01*
X0207814Y0076415D01*
X0207823Y0076352D01*
X0207829Y0076287D01*
X0207831Y0076223D01*
X0207831Y0074890D02*
X0207829Y0074835D01*
X0207824Y0074781D01*
X0207814Y0074727D01*
X0207801Y0074674D01*
X0207785Y0074622D01*
X0207765Y0074571D01*
X0207741Y0074522D01*
X0207715Y0074474D01*
X0207685Y0074429D01*
X0207652Y0074385D01*
X0207616Y0074344D01*
X0207577Y0074305D01*
X0207536Y0074269D01*
X0207492Y0074236D01*
X0207447Y0074206D01*
X0207399Y0074180D01*
X0207350Y0074156D01*
X0207299Y0074136D01*
X0207247Y0074120D01*
X0207194Y0074107D01*
X0207140Y0074097D01*
X0207086Y0074092D01*
X0207031Y0074090D01*
X0205697Y0074090D01*
X0201831Y0077290D02*
X0201728Y0077286D01*
X0201625Y0077280D01*
X0201522Y0077269D01*
X0201420Y0077256D01*
X0201318Y0077239D01*
X0201217Y0077218D01*
X0201117Y0077194D01*
X0201017Y0077166D01*
X0200919Y0077135D01*
X0200822Y0077101D01*
X0200726Y0077064D01*
X0200631Y0077023D01*
X0201830Y0077290D02*
X0201882Y0077289D01*
X0201934Y0077284D01*
X0201985Y0077275D01*
X0202035Y0077262D01*
X0202084Y0077246D01*
X0202132Y0077225D01*
X0202178Y0077202D01*
X0202222Y0077175D01*
X0202264Y0077145D01*
X0202304Y0077111D01*
X0202341Y0077075D01*
X0202375Y0077036D01*
X0202406Y0076995D01*
X0202434Y0076951D01*
X0202459Y0076906D01*
X0202480Y0076858D01*
X0202498Y0076810D01*
X0202512Y0076760D01*
X0202522Y0076709D01*
X0202529Y0076658D01*
X0202531Y0076606D01*
X0202530Y0076554D01*
X0202524Y0076502D01*
X0202515Y0076451D01*
X0202502Y0076401D01*
X0202485Y0076352D01*
X0202465Y0076305D01*
X0202441Y0076259D01*
X0202414Y0076214D01*
X0202384Y0076172D01*
X0202350Y0076133D01*
X0202314Y0076096D01*
X0202275Y0076062D01*
X0202233Y0076031D01*
X0202190Y0076003D01*
X0202144Y0075978D01*
X0202097Y0075957D01*
X0200764Y0075423D01*
X0200764Y0075424D02*
X0200717Y0075403D01*
X0200671Y0075378D01*
X0200628Y0075350D01*
X0200586Y0075319D01*
X0200547Y0075285D01*
X0200511Y0075248D01*
X0200477Y0075209D01*
X0200447Y0075167D01*
X0200420Y0075122D01*
X0200396Y0075076D01*
X0200376Y0075029D01*
X0200359Y0074980D01*
X0200346Y0074930D01*
X0200337Y0074879D01*
X0200331Y0074827D01*
X0200330Y0074775D01*
X0200332Y0074723D01*
X0200339Y0074672D01*
X0200349Y0074621D01*
X0200363Y0074571D01*
X0200381Y0074523D01*
X0200402Y0074475D01*
X0200427Y0074430D01*
X0200455Y0074386D01*
X0200486Y0074345D01*
X0200520Y0074306D01*
X0200557Y0074270D01*
X0200597Y0074236D01*
X0200639Y0074206D01*
X0200683Y0074179D01*
X0200729Y0074156D01*
X0200777Y0074135D01*
X0200826Y0074119D01*
X0200876Y0074106D01*
X0200927Y0074097D01*
X0200979Y0074092D01*
X0201031Y0074091D01*
X0197533Y0074090D02*
X0197533Y0077290D01*
X0197400Y0078623D02*
X0197666Y0078623D01*
X0197666Y0078890D01*
X0197400Y0078890D01*
X0197400Y0078623D01*
X0201031Y0074090D02*
X0201155Y0074094D01*
X0201280Y0074101D01*
X0201404Y0074111D01*
X0201528Y0074125D01*
X0201652Y0074142D01*
X0201775Y0074163D01*
X0201897Y0074187D01*
X0202019Y0074214D01*
X0202140Y0074245D01*
X0202260Y0074279D01*
X0202379Y0074316D01*
X0202497Y0074357D01*
X0204253Y0081964D02*
X0205853Y0081964D01*
X0204253Y0081964D02*
X0204189Y0081966D01*
X0204124Y0081972D01*
X0204061Y0081981D01*
X0203998Y0081995D01*
X0203936Y0082012D01*
X0203875Y0082033D01*
X0203815Y0082058D01*
X0203757Y0082086D01*
X0203701Y0082118D01*
X0203647Y0082153D01*
X0203595Y0082191D01*
X0203545Y0082232D01*
X0203499Y0082277D01*
X0203454Y0082323D01*
X0203413Y0082373D01*
X0203375Y0082425D01*
X0203340Y0082479D01*
X0203308Y0082535D01*
X0203280Y0082593D01*
X0203255Y0082653D01*
X0203234Y0082714D01*
X0203217Y0082776D01*
X0203203Y0082839D01*
X0203194Y0082902D01*
X0203188Y0082967D01*
X0203186Y0083031D01*
X0203186Y0083564D01*
X0203188Y0083628D01*
X0203194Y0083693D01*
X0203203Y0083756D01*
X0203217Y0083819D01*
X0203234Y0083881D01*
X0203255Y0083942D01*
X0203280Y0084002D01*
X0203308Y0084060D01*
X0203340Y0084116D01*
X0203375Y0084170D01*
X0203413Y0084222D01*
X0203454Y0084272D01*
X0203499Y0084318D01*
X0203545Y0084363D01*
X0203595Y0084404D01*
X0203647Y0084442D01*
X0203701Y0084477D01*
X0203757Y0084509D01*
X0203815Y0084537D01*
X0203875Y0084562D01*
X0203936Y0084583D01*
X0203998Y0084600D01*
X0204061Y0084614D01*
X0204124Y0084623D01*
X0204189Y0084629D01*
X0204253Y0084631D01*
X0205853Y0084631D01*
X0205853Y0086764D01*
X0203186Y0086764D01*
X0199699Y0086764D02*
X0199699Y0084631D01*
X0198099Y0084631D01*
X0198035Y0084629D01*
X0197970Y0084623D01*
X0197907Y0084614D01*
X0197844Y0084600D01*
X0197782Y0084583D01*
X0197721Y0084562D01*
X0197661Y0084537D01*
X0197603Y0084509D01*
X0197547Y0084477D01*
X0197493Y0084442D01*
X0197441Y0084404D01*
X0197391Y0084363D01*
X0197345Y0084318D01*
X0197300Y0084272D01*
X0197259Y0084222D01*
X0197221Y0084170D01*
X0197186Y0084116D01*
X0197154Y0084060D01*
X0197126Y0084002D01*
X0197101Y0083942D01*
X0197080Y0083881D01*
X0197063Y0083819D01*
X0197049Y0083756D01*
X0197040Y0083693D01*
X0197034Y0083628D01*
X0197032Y0083564D01*
X0197032Y0083031D01*
X0197034Y0082967D01*
X0197040Y0082902D01*
X0197049Y0082839D01*
X0197063Y0082776D01*
X0197080Y0082714D01*
X0197101Y0082653D01*
X0197126Y0082593D01*
X0197154Y0082535D01*
X0197186Y0082479D01*
X0197221Y0082425D01*
X0197259Y0082373D01*
X0197300Y0082323D01*
X0197345Y0082277D01*
X0197391Y0082232D01*
X0197441Y0082191D01*
X0197493Y0082153D01*
X0197547Y0082118D01*
X0197603Y0082086D01*
X0197661Y0082058D01*
X0197721Y0082033D01*
X0197782Y0082012D01*
X0197844Y0081995D01*
X0197907Y0081981D01*
X0197970Y0081972D01*
X0198035Y0081966D01*
X0198099Y0081964D01*
X0199699Y0081964D01*
X0199699Y0086764D02*
X0197032Y0086764D01*
X0189839Y0086764D02*
X0189839Y0081964D01*
X0189839Y0084098D02*
X0188506Y0084098D01*
X0188434Y0084100D01*
X0188362Y0084106D01*
X0188290Y0084116D01*
X0188219Y0084129D01*
X0188149Y0084147D01*
X0188080Y0084168D01*
X0188013Y0084193D01*
X0187946Y0084221D01*
X0187882Y0084253D01*
X0187819Y0084289D01*
X0187758Y0084328D01*
X0187699Y0084370D01*
X0187643Y0084415D01*
X0187589Y0084463D01*
X0187538Y0084514D01*
X0187490Y0084568D01*
X0187445Y0084624D01*
X0187403Y0084683D01*
X0187364Y0084744D01*
X0187328Y0084807D01*
X0187296Y0084871D01*
X0187268Y0084938D01*
X0187243Y0085005D01*
X0187222Y0085074D01*
X0187204Y0085144D01*
X0187191Y0085215D01*
X0187181Y0085287D01*
X0187175Y0085359D01*
X0187173Y0085431D01*
X0187175Y0085503D01*
X0187181Y0085575D01*
X0187191Y0085647D01*
X0187204Y0085718D01*
X0187222Y0085788D01*
X0187243Y0085857D01*
X0187268Y0085924D01*
X0187296Y0085991D01*
X0187328Y0086055D01*
X0187364Y0086118D01*
X0187403Y0086179D01*
X0187445Y0086238D01*
X0187490Y0086294D01*
X0187538Y0086348D01*
X0187589Y0086399D01*
X0187643Y0086447D01*
X0187699Y0086492D01*
X0187758Y0086534D01*
X0187819Y0086573D01*
X0187882Y0086609D01*
X0187946Y0086641D01*
X0188013Y0086669D01*
X0188080Y0086694D01*
X0188149Y0086715D01*
X0188219Y0086733D01*
X0188290Y0086746D01*
X0188362Y0086756D01*
X0188434Y0086762D01*
X0188506Y0086764D01*
X0189839Y0086764D01*
X0184539Y0086764D02*
X0183473Y0086764D01*
X0184006Y0086764D02*
X0184006Y0081964D01*
X0184539Y0081964D02*
X0183473Y0081964D01*
X0180416Y0083298D02*
X0180416Y0085431D01*
X0180414Y0085503D01*
X0180408Y0085575D01*
X0180398Y0085647D01*
X0180385Y0085718D01*
X0180367Y0085788D01*
X0180346Y0085857D01*
X0180321Y0085924D01*
X0180293Y0085991D01*
X0180261Y0086055D01*
X0180225Y0086118D01*
X0180186Y0086179D01*
X0180144Y0086238D01*
X0180099Y0086294D01*
X0180051Y0086348D01*
X0180000Y0086399D01*
X0179946Y0086447D01*
X0179890Y0086492D01*
X0179831Y0086534D01*
X0179770Y0086573D01*
X0179707Y0086609D01*
X0179643Y0086641D01*
X0179576Y0086669D01*
X0179509Y0086694D01*
X0179440Y0086715D01*
X0179370Y0086733D01*
X0179299Y0086746D01*
X0179227Y0086756D01*
X0179155Y0086762D01*
X0179083Y0086764D01*
X0179011Y0086762D01*
X0178939Y0086756D01*
X0178867Y0086746D01*
X0178796Y0086733D01*
X0178726Y0086715D01*
X0178657Y0086694D01*
X0178590Y0086669D01*
X0178523Y0086641D01*
X0178459Y0086609D01*
X0178396Y0086573D01*
X0178335Y0086534D01*
X0178276Y0086492D01*
X0178220Y0086447D01*
X0178166Y0086399D01*
X0178115Y0086348D01*
X0178067Y0086294D01*
X0178022Y0086238D01*
X0177980Y0086179D01*
X0177941Y0086118D01*
X0177905Y0086055D01*
X0177873Y0085991D01*
X0177845Y0085924D01*
X0177820Y0085857D01*
X0177799Y0085788D01*
X0177781Y0085718D01*
X0177768Y0085647D01*
X0177758Y0085575D01*
X0177752Y0085503D01*
X0177750Y0085431D01*
X0177749Y0085431D02*
X0177749Y0083298D01*
X0177750Y0083298D02*
X0177752Y0083226D01*
X0177758Y0083154D01*
X0177768Y0083082D01*
X0177781Y0083011D01*
X0177799Y0082941D01*
X0177820Y0082872D01*
X0177845Y0082805D01*
X0177873Y0082738D01*
X0177905Y0082674D01*
X0177941Y0082611D01*
X0177980Y0082550D01*
X0178022Y0082491D01*
X0178067Y0082435D01*
X0178115Y0082381D01*
X0178166Y0082330D01*
X0178220Y0082282D01*
X0178276Y0082237D01*
X0178335Y0082195D01*
X0178396Y0082156D01*
X0178459Y0082120D01*
X0178523Y0082088D01*
X0178590Y0082060D01*
X0178657Y0082035D01*
X0178726Y0082014D01*
X0178796Y0081996D01*
X0178867Y0081983D01*
X0178939Y0081973D01*
X0179011Y0081967D01*
X0179083Y0081965D01*
X0179155Y0081967D01*
X0179227Y0081973D01*
X0179299Y0081983D01*
X0179370Y0081996D01*
X0179440Y0082014D01*
X0179509Y0082035D01*
X0179576Y0082060D01*
X0179643Y0082088D01*
X0179707Y0082120D01*
X0179770Y0082156D01*
X0179831Y0082195D01*
X0179890Y0082237D01*
X0179946Y0082282D01*
X0180000Y0082330D01*
X0180051Y0082381D01*
X0180099Y0082435D01*
X0180144Y0082491D01*
X0180186Y0082550D01*
X0180225Y0082611D01*
X0180261Y0082674D01*
X0180293Y0082738D01*
X0180321Y0082805D01*
X0180346Y0082872D01*
X0180367Y0082941D01*
X0180385Y0083011D01*
X0180398Y0083082D01*
X0180408Y0083154D01*
X0180414Y0083226D01*
X0180416Y0083298D01*
X0171411Y0081964D02*
X0170344Y0081964D01*
X0170877Y0081964D02*
X0170877Y0086764D01*
X0170344Y0086764D02*
X0171411Y0086764D01*
X0167226Y0085164D02*
X0165893Y0085164D01*
X0165838Y0085162D01*
X0165784Y0085157D01*
X0165730Y0085147D01*
X0165677Y0085134D01*
X0165625Y0085118D01*
X0165574Y0085098D01*
X0165525Y0085074D01*
X0165477Y0085048D01*
X0165432Y0085018D01*
X0165388Y0084985D01*
X0165347Y0084949D01*
X0165308Y0084910D01*
X0165272Y0084869D01*
X0165239Y0084825D01*
X0165209Y0084780D01*
X0165183Y0084732D01*
X0165159Y0084683D01*
X0165139Y0084632D01*
X0165123Y0084580D01*
X0165110Y0084527D01*
X0165100Y0084473D01*
X0165095Y0084419D01*
X0165093Y0084364D01*
X0165093Y0081964D01*
X0167226Y0081964D02*
X0167226Y0085164D01*
X0209340Y0081964D02*
X0212007Y0081964D01*
X0209740Y0084631D01*
X0210540Y0086765D02*
X0210618Y0086763D01*
X0210695Y0086757D01*
X0210772Y0086747D01*
X0210848Y0086734D01*
X0210924Y0086716D01*
X0210998Y0086695D01*
X0211072Y0086670D01*
X0211144Y0086642D01*
X0211215Y0086610D01*
X0211283Y0086574D01*
X0211350Y0086535D01*
X0211415Y0086492D01*
X0211478Y0086447D01*
X0211538Y0086398D01*
X0211596Y0086346D01*
X0211651Y0086292D01*
X0211704Y0086235D01*
X0211753Y0086175D01*
X0211799Y0086113D01*
X0211843Y0086048D01*
X0211882Y0085982D01*
X0211919Y0085913D01*
X0211952Y0085843D01*
X0211981Y0085771D01*
X0212007Y0085698D01*
X0209740Y0084631D02*
X0209691Y0084680D01*
X0209645Y0084732D01*
X0209601Y0084786D01*
X0209561Y0084843D01*
X0209523Y0084901D01*
X0209489Y0084962D01*
X0209458Y0085024D01*
X0209431Y0085088D01*
X0209407Y0085154D01*
X0209387Y0085220D01*
X0209370Y0085288D01*
X0209357Y0085356D01*
X0209348Y0085425D01*
X0209342Y0085494D01*
X0209340Y0085564D01*
X0209342Y0085631D01*
X0209348Y0085698D01*
X0209357Y0085765D01*
X0209370Y0085831D01*
X0209387Y0085896D01*
X0209407Y0085960D01*
X0209431Y0086023D01*
X0209459Y0086085D01*
X0209490Y0086144D01*
X0209524Y0086202D01*
X0209561Y0086258D01*
X0209602Y0086312D01*
X0209645Y0086364D01*
X0209691Y0086413D01*
X0209740Y0086459D01*
X0209792Y0086502D01*
X0209846Y0086543D01*
X0209902Y0086580D01*
X0209960Y0086614D01*
X0210019Y0086645D01*
X0210081Y0086673D01*
X0210144Y0086697D01*
X0210208Y0086717D01*
X0210273Y0086734D01*
X0210339Y0086747D01*
X0210406Y0086756D01*
X0210473Y0086762D01*
X0210540Y0086764D01*
X0215761Y0085698D02*
X0215763Y0085634D01*
X0215769Y0085569D01*
X0215778Y0085506D01*
X0215792Y0085443D01*
X0215809Y0085381D01*
X0215830Y0085320D01*
X0215855Y0085260D01*
X0215883Y0085202D01*
X0215915Y0085146D01*
X0215950Y0085092D01*
X0215988Y0085040D01*
X0216029Y0084990D01*
X0216074Y0084944D01*
X0216120Y0084899D01*
X0216170Y0084858D01*
X0216222Y0084820D01*
X0216276Y0084785D01*
X0216332Y0084753D01*
X0216390Y0084725D01*
X0216450Y0084700D01*
X0216511Y0084679D01*
X0216573Y0084662D01*
X0216636Y0084648D01*
X0216699Y0084639D01*
X0216764Y0084633D01*
X0216828Y0084631D01*
X0216892Y0084633D01*
X0216957Y0084639D01*
X0217020Y0084648D01*
X0217083Y0084662D01*
X0217145Y0084679D01*
X0217206Y0084700D01*
X0217266Y0084725D01*
X0217324Y0084753D01*
X0217380Y0084785D01*
X0217434Y0084820D01*
X0217486Y0084858D01*
X0217536Y0084899D01*
X0217582Y0084944D01*
X0217627Y0084990D01*
X0217668Y0085040D01*
X0217706Y0085092D01*
X0217741Y0085146D01*
X0217773Y0085202D01*
X0217801Y0085260D01*
X0217826Y0085320D01*
X0217847Y0085381D01*
X0217864Y0085443D01*
X0217878Y0085506D01*
X0217887Y0085569D01*
X0217893Y0085634D01*
X0217895Y0085698D01*
X0217893Y0085762D01*
X0217887Y0085827D01*
X0217878Y0085890D01*
X0217864Y0085953D01*
X0217847Y0086015D01*
X0217826Y0086076D01*
X0217801Y0086136D01*
X0217773Y0086194D01*
X0217741Y0086250D01*
X0217706Y0086304D01*
X0217668Y0086356D01*
X0217627Y0086406D01*
X0217582Y0086452D01*
X0217536Y0086497D01*
X0217486Y0086538D01*
X0217434Y0086576D01*
X0217380Y0086611D01*
X0217324Y0086643D01*
X0217266Y0086671D01*
X0217206Y0086696D01*
X0217145Y0086717D01*
X0217083Y0086734D01*
X0217020Y0086748D01*
X0216957Y0086757D01*
X0216892Y0086763D01*
X0216828Y0086765D01*
X0216764Y0086763D01*
X0216699Y0086757D01*
X0216636Y0086748D01*
X0216573Y0086734D01*
X0216511Y0086717D01*
X0216450Y0086696D01*
X0216390Y0086671D01*
X0216332Y0086643D01*
X0216276Y0086611D01*
X0216222Y0086576D01*
X0216170Y0086538D01*
X0216120Y0086497D01*
X0216074Y0086452D01*
X0216029Y0086406D01*
X0215988Y0086356D01*
X0215950Y0086304D01*
X0215915Y0086250D01*
X0215883Y0086194D01*
X0215855Y0086136D01*
X0215830Y0086076D01*
X0215809Y0086015D01*
X0215792Y0085953D01*
X0215778Y0085890D01*
X0215769Y0085827D01*
X0215763Y0085762D01*
X0215761Y0085698D01*
X0215495Y0083298D02*
X0215497Y0083226D01*
X0215503Y0083154D01*
X0215513Y0083082D01*
X0215526Y0083011D01*
X0215544Y0082941D01*
X0215565Y0082872D01*
X0215590Y0082805D01*
X0215618Y0082738D01*
X0215650Y0082674D01*
X0215686Y0082611D01*
X0215725Y0082550D01*
X0215767Y0082491D01*
X0215812Y0082435D01*
X0215860Y0082381D01*
X0215911Y0082330D01*
X0215965Y0082282D01*
X0216021Y0082237D01*
X0216080Y0082195D01*
X0216141Y0082156D01*
X0216204Y0082120D01*
X0216268Y0082088D01*
X0216335Y0082060D01*
X0216402Y0082035D01*
X0216471Y0082014D01*
X0216541Y0081996D01*
X0216612Y0081983D01*
X0216684Y0081973D01*
X0216756Y0081967D01*
X0216828Y0081965D01*
X0216900Y0081967D01*
X0216972Y0081973D01*
X0217044Y0081983D01*
X0217115Y0081996D01*
X0217185Y0082014D01*
X0217254Y0082035D01*
X0217321Y0082060D01*
X0217388Y0082088D01*
X0217452Y0082120D01*
X0217515Y0082156D01*
X0217576Y0082195D01*
X0217635Y0082237D01*
X0217691Y0082282D01*
X0217745Y0082330D01*
X0217796Y0082381D01*
X0217844Y0082435D01*
X0217889Y0082491D01*
X0217931Y0082550D01*
X0217970Y0082611D01*
X0218006Y0082674D01*
X0218038Y0082738D01*
X0218066Y0082805D01*
X0218091Y0082872D01*
X0218112Y0082941D01*
X0218130Y0083011D01*
X0218143Y0083082D01*
X0218153Y0083154D01*
X0218159Y0083226D01*
X0218161Y0083298D01*
X0218159Y0083370D01*
X0218153Y0083442D01*
X0218143Y0083514D01*
X0218130Y0083585D01*
X0218112Y0083655D01*
X0218091Y0083724D01*
X0218066Y0083791D01*
X0218038Y0083858D01*
X0218006Y0083922D01*
X0217970Y0083985D01*
X0217931Y0084046D01*
X0217889Y0084105D01*
X0217844Y0084161D01*
X0217796Y0084215D01*
X0217745Y0084266D01*
X0217691Y0084314D01*
X0217635Y0084359D01*
X0217576Y0084401D01*
X0217515Y0084440D01*
X0217452Y0084476D01*
X0217388Y0084508D01*
X0217321Y0084536D01*
X0217254Y0084561D01*
X0217185Y0084582D01*
X0217115Y0084600D01*
X0217044Y0084613D01*
X0216972Y0084623D01*
X0216900Y0084629D01*
X0216828Y0084631D01*
X0216756Y0084629D01*
X0216684Y0084623D01*
X0216612Y0084613D01*
X0216541Y0084600D01*
X0216471Y0084582D01*
X0216402Y0084561D01*
X0216335Y0084536D01*
X0216268Y0084508D01*
X0216204Y0084476D01*
X0216141Y0084440D01*
X0216080Y0084401D01*
X0216021Y0084359D01*
X0215965Y0084314D01*
X0215911Y0084266D01*
X0215860Y0084215D01*
X0215812Y0084161D01*
X0215767Y0084105D01*
X0215725Y0084046D01*
X0215686Y0083985D01*
X0215650Y0083922D01*
X0215618Y0083858D01*
X0215590Y0083791D01*
X0215565Y0083724D01*
X0215544Y0083655D01*
X0215526Y0083585D01*
X0215513Y0083514D01*
X0215503Y0083442D01*
X0215497Y0083370D01*
X0215495Y0083298D01*
X0095035Y0060475D02*
X0095035Y0059409D01*
X0095033Y0059345D01*
X0095027Y0059280D01*
X0095018Y0059217D01*
X0095004Y0059154D01*
X0094987Y0059092D01*
X0094966Y0059031D01*
X0094941Y0058971D01*
X0094913Y0058913D01*
X0094881Y0058857D01*
X0094846Y0058803D01*
X0094808Y0058751D01*
X0094767Y0058701D01*
X0094722Y0058655D01*
X0094676Y0058610D01*
X0094626Y0058569D01*
X0094574Y0058531D01*
X0094520Y0058496D01*
X0094464Y0058464D01*
X0094406Y0058436D01*
X0094346Y0058411D01*
X0094285Y0058390D01*
X0094223Y0058373D01*
X0094160Y0058359D01*
X0094097Y0058350D01*
X0094032Y0058344D01*
X0093968Y0058342D01*
X0093904Y0058344D01*
X0093839Y0058350D01*
X0093776Y0058359D01*
X0093713Y0058373D01*
X0093651Y0058390D01*
X0093590Y0058411D01*
X0093530Y0058436D01*
X0093472Y0058464D01*
X0093416Y0058496D01*
X0093362Y0058531D01*
X0093310Y0058569D01*
X0093260Y0058610D01*
X0093214Y0058655D01*
X0093169Y0058701D01*
X0093128Y0058751D01*
X0093090Y0058803D01*
X0093055Y0058857D01*
X0093023Y0058913D01*
X0092995Y0058971D01*
X0092970Y0059031D01*
X0092949Y0059092D01*
X0092932Y0059154D01*
X0092918Y0059217D01*
X0092909Y0059280D01*
X0092903Y0059345D01*
X0092901Y0059409D01*
X0092901Y0060475D01*
X0092903Y0060539D01*
X0092909Y0060604D01*
X0092918Y0060667D01*
X0092932Y0060730D01*
X0092949Y0060792D01*
X0092970Y0060853D01*
X0092995Y0060913D01*
X0093023Y0060971D01*
X0093055Y0061027D01*
X0093090Y0061081D01*
X0093128Y0061133D01*
X0093169Y0061183D01*
X0093214Y0061229D01*
X0093260Y0061274D01*
X0093310Y0061315D01*
X0093362Y0061353D01*
X0093416Y0061388D01*
X0093472Y0061420D01*
X0093530Y0061448D01*
X0093590Y0061473D01*
X0093651Y0061494D01*
X0093713Y0061511D01*
X0093776Y0061525D01*
X0093839Y0061534D01*
X0093904Y0061540D01*
X0093968Y0061542D01*
X0094032Y0061540D01*
X0094097Y0061534D01*
X0094160Y0061525D01*
X0094223Y0061511D01*
X0094285Y0061494D01*
X0094346Y0061473D01*
X0094406Y0061448D01*
X0094464Y0061420D01*
X0094520Y0061388D01*
X0094574Y0061353D01*
X0094626Y0061315D01*
X0094676Y0061274D01*
X0094722Y0061229D01*
X0094767Y0061183D01*
X0094808Y0061133D01*
X0094846Y0061081D01*
X0094881Y0061027D01*
X0094913Y0060971D01*
X0094941Y0060913D01*
X0094966Y0060853D01*
X0094987Y0060792D01*
X0095004Y0060730D01*
X0095018Y0060667D01*
X0095027Y0060604D01*
X0095033Y0060539D01*
X0095035Y0060475D01*
X0089079Y0074090D02*
X0087745Y0074090D01*
X0087745Y0077290D01*
X0089879Y0077290D02*
X0089879Y0074890D01*
X0089877Y0074835D01*
X0089872Y0074781D01*
X0089862Y0074727D01*
X0089849Y0074674D01*
X0089833Y0074622D01*
X0089813Y0074571D01*
X0089789Y0074522D01*
X0089763Y0074474D01*
X0089733Y0074429D01*
X0089700Y0074385D01*
X0089664Y0074344D01*
X0089625Y0074305D01*
X0089584Y0074269D01*
X0089540Y0074236D01*
X0089495Y0074206D01*
X0089447Y0074180D01*
X0089398Y0074156D01*
X0089347Y0074136D01*
X0089295Y0074120D01*
X0089242Y0074107D01*
X0089188Y0074097D01*
X0089134Y0074092D01*
X0089079Y0074090D01*
X0084481Y0074890D02*
X0084481Y0078890D01*
X0085014Y0077290D02*
X0083414Y0077290D01*
X0080442Y0076223D02*
X0080442Y0074890D01*
X0080440Y0074835D01*
X0080435Y0074781D01*
X0080425Y0074727D01*
X0080412Y0074674D01*
X0080396Y0074622D01*
X0080376Y0074571D01*
X0080352Y0074522D01*
X0080326Y0074474D01*
X0080296Y0074429D01*
X0080263Y0074385D01*
X0080227Y0074344D01*
X0080188Y0074305D01*
X0080147Y0074269D01*
X0080103Y0074236D01*
X0080058Y0074206D01*
X0080010Y0074180D01*
X0079961Y0074156D01*
X0079910Y0074136D01*
X0079858Y0074120D01*
X0079805Y0074107D01*
X0079751Y0074097D01*
X0079697Y0074092D01*
X0079642Y0074090D01*
X0078309Y0074090D01*
X0078309Y0075690D02*
X0080442Y0075690D01*
X0080443Y0076223D02*
X0080441Y0076287D01*
X0080435Y0076352D01*
X0080426Y0076415D01*
X0080412Y0076478D01*
X0080395Y0076540D01*
X0080374Y0076601D01*
X0080349Y0076661D01*
X0080321Y0076719D01*
X0080289Y0076775D01*
X0080254Y0076829D01*
X0080216Y0076881D01*
X0080175Y0076931D01*
X0080130Y0076977D01*
X0080084Y0077022D01*
X0080034Y0077063D01*
X0079982Y0077101D01*
X0079928Y0077136D01*
X0079872Y0077168D01*
X0079814Y0077196D01*
X0079754Y0077221D01*
X0079693Y0077242D01*
X0079631Y0077259D01*
X0079568Y0077273D01*
X0079505Y0077282D01*
X0079440Y0077288D01*
X0079376Y0077290D01*
X0079312Y0077288D01*
X0079247Y0077282D01*
X0079184Y0077273D01*
X0079121Y0077259D01*
X0079059Y0077242D01*
X0078998Y0077221D01*
X0078938Y0077196D01*
X0078880Y0077168D01*
X0078824Y0077136D01*
X0078770Y0077101D01*
X0078718Y0077063D01*
X0078668Y0077022D01*
X0078622Y0076977D01*
X0078577Y0076931D01*
X0078536Y0076881D01*
X0078498Y0076829D01*
X0078463Y0076775D01*
X0078431Y0076719D01*
X0078403Y0076661D01*
X0078378Y0076601D01*
X0078357Y0076540D01*
X0078340Y0076478D01*
X0078326Y0076415D01*
X0078317Y0076352D01*
X0078311Y0076287D01*
X0078309Y0076223D01*
X0078309Y0075690D01*
X0074816Y0074090D02*
X0074816Y0077290D01*
X0073216Y0077290D01*
X0073216Y0076757D01*
X0083414Y0074090D02*
X0083681Y0074090D01*
X0083736Y0074092D01*
X0083790Y0074097D01*
X0083844Y0074107D01*
X0083897Y0074120D01*
X0083949Y0074136D01*
X0084000Y0074156D01*
X0084049Y0074180D01*
X0084097Y0074206D01*
X0084142Y0074236D01*
X0084186Y0074269D01*
X0084227Y0074305D01*
X0084266Y0074344D01*
X0084302Y0074385D01*
X0084335Y0074429D01*
X0084365Y0074474D01*
X0084391Y0074522D01*
X0084415Y0074571D01*
X0084435Y0074622D01*
X0084451Y0074674D01*
X0084464Y0074727D01*
X0084474Y0074781D01*
X0084479Y0074835D01*
X0084481Y0074890D01*
D12*
X0173109Y0164162D02*
X0178109Y0164162D01*
X0264498Y0164462D02*
X0269498Y0164462D01*
X0357387Y0164462D02*
X0362387Y0164462D01*
M02*
